<svg width="17" height="10" viewBox="0 0 17 10" fill="none" xmlns="http://www.w3.org/2000/svg">
<path d="M8.55297 9.99872C8.89995 9.98682 9.23071 9.84298 9.48248 9.59429L16.5645 2.53439C16.9298 2.16976 17.08 1.63052 16.9587 1.11978C16.8372 0.609057 16.4627 0.2042 15.976 0.0581168C15.4893 -0.0881871 14.9645 0.0462157 14.5991 0.410839L8.5 6.4874L2.40088 0.410839C2.03552 0.0462136 1.51068 -0.0881871 1.02399 0.0581168C0.537302 0.204211 0.162871 0.609041 0.0413133 1.11978C-0.0800115 1.6305 0.0701628 2.16973 0.435528 2.53439L7.51753 9.59429C7.79575 9.86945 8.16963 10.0153 8.55337 9.99872H8.55297Z" fill="#BAC2CD"/>
</svg>
