<svg width="112" height="112" viewBox="0 0 112 112" fill="none" xmlns="http://www.w3.org/2000/svg">
<mask id="mask0_2515_1191" style="mask-type:alpha" maskUnits="userSpaceOnUse" x="0" y="0" width="112" height="112">
<rect width="112" height="112" fill="#D9D9D9"/>
</mask>
<g mask="url(#mask0_2515_1191)">
<path opacity="0.1294" d="M54.5 102C77.4198 102 96 91.3118 96 78.1274C96 64.943 77.4198 54.2549 54.5 54.2549C31.5802 54.2549 13 64.943 13 78.1274C13 91.3118 31.5802 102 54.5 102Z" fill="#0061AF"/>
<path d="M39.2266 35.2712L83.2972 10.6272" stroke="#DAE0E6" stroke-width="2" stroke-miterlimit="10" stroke-linecap="round"/>
<path d="M40.4492 38.3425L84.5383 13.6985" stroke="#DAE0E6" stroke-width="2" stroke-miterlimit="10" stroke-linecap="round"/>
<path d="M44.9961 39.693L87.6976 15.604" stroke="#DAE0E6" stroke-width="2" stroke-miterlimit="10" stroke-linecap="round"/>
<path d="M95.8237 55.919L95.7682 14.6236C95.7682 14.3461 95.4722 14.1796 95.2317 14.3091C90.2177 17.1398 51.4386 39.4711 51.4386 39.4711C51.4386 39.4711 42.9279 43.8005 37.951 38.0465C37.5624 37.6025 36.8594 37.843 36.8594 38.435L37.877 88.1301C37.877 88.4076 38.173 88.5741 38.4135 88.4446L95.6202 56.252C95.7682 56.178 95.8422 56.0485 95.8237 55.919Z" fill="white" stroke="#0061AF" stroke-width="1.5" stroke-miterlimit="10"/>
<path d="M40.3747 39.9891C35.9898 37.954 36.8409 34.2166 39.6346 32.6625C45.2036 29.5543 83.6127 8 83.6127 8" stroke="#0061AF" stroke-width="1.5" stroke-miterlimit="10" stroke-linecap="round"/>
<path d="M101.078 38.4906V28.3518C101.078 28.2593 100.967 28.1853 100.875 28.2408C99.2466 29.1844 87.9052 35.7339 82.5027 38.7497C75.9532 42.3945 76.8228 52.6813 83.3353 49.0365C87.4981 46.7238 98.414 40.4888 100.671 39.1937C100.93 39.0457 101.078 38.7867 101.078 38.4906Z" fill="white" stroke="#0061AF" stroke-width="1.5" stroke-miterlimit="10" stroke-linecap="round"/>
<path d="M86.3947 44.25C87.1775 42.8147 87.0485 41.2348 86.1066 40.7211C85.1647 40.2074 83.7666 40.9545 82.9838 42.3897C82.201 43.825 82.33 45.405 83.2719 45.9187C84.2138 46.4324 85.6119 45.6853 86.3947 44.25Z" fill="#0061AF"/>
<path d="M100.741 28.0741L96.0234 25.1509L96.116 30.6643L100.741 28.2406C100.797 28.2221 100.797 28.1296 100.741 28.0741Z" fill="#0061AF" stroke="#0061AF" stroke-width="1.5" stroke-miterlimit="10" stroke-linecap="round"/>
<path d="M27.4707 103.945V71.9549C27.4707 71.8649 27.5157 71.775 27.5906 71.73L68.3052 47.685C68.4851 47.5801 68.695 47.715 68.695 47.9099L68.3202 79.5401C68.3202 79.6301 68.2752 79.705 68.2003 79.765L27.8755 104.17C27.6956 104.275 27.4707 104.155 27.4707 103.945Z" fill="#0061AF" stroke="#0061AF" stroke-width="1.5" stroke-miterlimit="10" stroke-linecap="round"/>
<path d="M30.6152 85.3566C30.6152 84.0074 30.6152 81.5939 30.6152 80.3347C30.6152 80.0649 30.6302 79.6002 31.5746 79.0605C32.594 78.4759 37.6908 75.4927 37.6908 75.4927C37.6908 75.4927 38.3354 75.118 38.3504 75.7925C38.3804 76.4671 38.3504 80.8294 38.3504 80.8294C38.3504 80.8294 38.3954 81.3391 38.0056 81.6389C37.6159 81.9387 32.1293 85.1317 31.3198 85.6264C30.975 85.8213 30.6152 85.7463 30.6152 85.3566Z" fill="white"/>
<path d="M30.6152 91.023C30.6152 91.023 30.6302 89.9887 30.6302 89.5989C30.6302 89.2991 30.9001 89.0143 31.4397 88.6995C32.549 88.0699 35.7121 86.196 37.7958 85.0268C37.9307 84.9518 38.3504 84.8769 38.3504 85.2516C38.3504 85.7763 38.3654 86.316 38.3654 86.7657C38.3654 86.9906 38.1855 87.3353 37.8407 87.5302C37.0462 87.9949 32.9838 90.3335 31.2448 91.3528C30.99 91.5027 30.6152 91.4578 30.6152 91.023Z" fill="white"/>
<path d="M39.8203 85.7913C39.8203 85.7913 39.8353 84.757 39.8353 84.3672C39.8353 84.0674 40.1051 83.7826 40.6448 83.4678C41.7541 82.8382 44.9171 80.9644 47.0008 79.7951C47.1357 79.7201 47.5555 79.6452 47.5555 80.0199C47.5555 80.5446 47.5705 81.0843 47.5705 81.534C47.5705 81.7589 47.3906 82.1036 47.0458 82.2985C46.2513 82.7632 42.1888 85.1018 40.4499 86.1211C40.1951 86.271 39.8203 86.2261 39.8203 85.7913Z" fill="white"/>
<path d="M49.0566 80.3797C49.0566 80.3797 49.0716 79.3454 49.0716 78.9556C49.0716 78.6558 49.3415 78.371 49.8811 78.0562C50.9904 77.4266 54.1535 75.5527 56.2372 74.3835C56.3721 74.3085 56.7918 74.2336 56.7918 74.6083C56.7918 75.133 56.8068 75.6727 56.8068 76.1224C56.8068 76.3472 56.6269 76.692 56.2821 76.8869C55.4876 77.3516 51.4252 79.6902 49.6862 80.7095C49.4314 80.8594 49.0566 80.8144 49.0566 80.3797Z" fill="white"/>
<path d="M58.3477 74.983C58.3477 74.983 58.3627 73.9486 58.3627 73.5589C58.3627 73.2591 58.6325 72.9742 59.1721 72.6594C60.2815 72.0298 63.4445 70.156 65.5282 68.9867C65.6631 68.9118 66.0828 68.8368 66.0828 69.2116C66.0828 69.7363 66.0978 70.2759 66.0978 70.7257C66.0978 70.9505 65.9179 71.2953 65.5732 71.4902C64.7786 71.9549 60.7162 74.2934 58.9773 75.3128C58.7224 75.4627 58.3477 75.4177 58.3477 74.983Z" fill="white"/>
<path d="M46.0873 89.2992C46.0873 88.9993 46.0723 88.6695 46.0723 88.2798C46.0723 87.995 46.2971 87.7101 46.7169 87.4553C47.2565 87.1405 60.6582 79.3903 65.3053 76.707C65.5901 76.5421 65.9349 76.4672 65.9349 76.9169C65.9349 77.3666 65.9349 77.6364 65.9349 77.8763C65.9349 78.0562 65.9349 78.266 65.5901 78.4759C65.2453 78.6858 51.4839 86.6308 46.7019 89.4041C46.4171 89.569 46.0873 89.6889 46.0873 89.2992Z" fill="white"/>
<path d="M63.7897 75.4176C63.7748 75.2527 63.7598 74.758 63.7598 74.758C63.7598 74.758 63.7598 74.5632 63.9397 74.4432C64.1195 74.3233 65.1539 73.6487 65.5586 73.3789C65.6936 73.289 65.9184 73.259 65.9184 73.4689C65.9184 73.8736 65.9334 74.2184 65.9334 74.2184C65.9334 74.2184 65.9634 74.3383 65.7685 74.4732C65.5736 74.6081 64.6142 75.2228 64.1195 75.5226C63.9846 75.6125 63.8047 75.6125 63.7897 75.4176Z" fill="white"/>
<path d="M60.4909 77.2914C60.4759 77.1265 60.4609 76.6318 60.4609 76.6318C60.4609 76.6318 60.4609 76.4369 60.6408 76.317C60.8207 76.1971 61.8551 75.5225 62.2598 75.2527C62.3947 75.1627 62.6196 75.1328 62.6196 75.3426C62.6196 75.7474 62.6346 76.0922 62.6346 76.0922C62.6346 76.0922 62.6646 76.2121 62.4697 76.347C62.2748 76.4819 61.3154 77.0965 60.8207 77.3964C60.6858 77.4863 60.5059 77.4863 60.4909 77.2914Z" fill="white"/>
</g>
</svg>
