<svg width="30" height="30" viewBox="0 0 30 30" fill="none" xmlns="http://www.w3.org/2000/svg">
<rect width="30" height="30" rx="8" fill="#2361A9"/>
<path d="M21.5271 9.00004C21.1605 8.99712 20.8113 9.15621 20.5728 9.43453L12.7141 18.3457L9.14124 14.7318C8.91028 14.492 8.59299 14.3545 8.25994 14.3504C7.92703 14.3462 7.60631 14.4757 7.36948 14.7097C7.13281 14.9439 6.99961 15.2632 7 15.5961C7.00038 15.929 7.13421 16.248 7.37153 16.4816L11.8812 21.0427C12.1236 21.2879 12.4569 21.4214 12.8015 21.4117C13.1461 21.4018 13.4712 21.2494 13.6993 20.9909L22.4391 11.0806C22.6555 10.8421 22.771 10.5291 22.7614 10.2073C22.7519 9.88539 22.6179 9.57989 22.3877 9.35476C22.1575 9.12952 21.849 9.00241 21.527 9.00001L21.5271 9.00004Z" fill="white"/>
</svg>
