<svg width="112" height="112" viewBox="0 0 112 112" fill="none" xmlns="http://www.w3.org/2000/svg">
<mask id="mask0_2620_12125" style="mask-type:alpha" maskUnits="userSpaceOnUse" x="0" y="0" width="112" height="112">
<rect width="112" height="112" fill="#D9D9D9"/>
</mask>
<g mask="url(#mask0_2620_12125)">
<path d="M64.7883 102C87.3152 102 105.577 91.7084 105.577 79.0127C105.577 66.3171 87.3152 56.0253 64.7883 56.0253C42.2614 56.0253 23.9998 66.3171 23.9998 79.0127C23.9998 91.7084 42.2614 102 64.7883 102Z" fill="#DEEBF5"/>
<path d="M34.8574 93.6231L34.5818 55.0449L91.347 22.8044L91.6226 61.3827L34.8574 93.6231Z" fill="#0062AD" stroke="#0062AD" stroke-width="1.5" stroke-miterlimit="10" stroke-linejoin="round"/>
<path d="M10.0566 78.864L9.78107 40.2858L34.5814 55.0447L34.8569 93.623L10.0566 78.864Z" fill="#0062AD" stroke="#0062AD" stroke-width="1.5" stroke-miterlimit="10" stroke-linejoin="round"/>
<path d="M40.633 57.2713L40.5558 51.6499L84.8768 26.4749V32.1955L40.633 57.2713Z" fill="white" stroke="#0062AD" stroke-width="1.5" stroke-miterlimit="10" stroke-linejoin="round"/>
<path d="M54.1897 82.6448L53.9142 49.7431L57.0335 47.9795L57.3973 80.8151L54.1897 82.6448Z" fill="white" stroke="#0062AD" stroke-width="1.5" stroke-miterlimit="10" stroke-linejoin="round"/>
<path d="M68.0571 74.7637L67.8036 41.873L71.0882 40.2858L71.3528 72.8899L68.0571 74.7637Z" fill="white" stroke="#0062AD" stroke-width="1.5" stroke-miterlimit="10" stroke-linejoin="round"/>
<path d="M15.5005 49.1147V43.6917L28.7824 51.5947L28.7273 57.2712L15.5005 49.1147Z" fill="white" stroke="#0062AD" stroke-width="1.5" stroke-miterlimit="10" stroke-linejoin="round"/>
<path d="M15.5005 60.9749V49.1149L28.7273 57.2714L28.7824 69.2417L15.5005 60.9749Z" fill="white" stroke="#0062AD" stroke-width="1.5" stroke-miterlimit="10" stroke-linejoin="round"/>
<path d="M15.5005 82.1046V60.9747L28.7824 69.2415V90.0076L15.5005 82.1046Z" fill="#DEEBF4" stroke="#0062AD" stroke-width="1.5" stroke-miterlimit="10" stroke-linejoin="round"/>
<path d="M40.5558 69.2415L40.633 57.2712L53.9149 49.7429L54.0142 61.6912L40.5558 69.2415Z" fill="white" stroke="#0062AD" stroke-width="1.5" stroke-miterlimit="10" stroke-linejoin="round"/>
<path d="M71.1858 51.9585L71.1747 39.9993L84.8755 32.1954V44.1327L71.1858 51.9585Z" fill="white" stroke="#0062AD" stroke-width="1.5" stroke-miterlimit="10" stroke-linejoin="round"/>
<path d="M41.107 90.0079L40.5558 69.2417L54.0142 61.6914L54.1905 82.6449L41.107 90.0079Z" fill="#DEEBF4" stroke="#0062AD" stroke-width="1.5" stroke-miterlimit="10" stroke-linejoin="round"/>
<path d="M71.3511 72.8902L71.1747 52.0138L84.8755 44.1328V65.2186L71.3511 72.8902Z" fill="#DEEBF4" stroke="#0062AD" stroke-width="1.5" stroke-miterlimit="10" stroke-linejoin="round"/>
<path d="M57.1655 59.4872L57.0332 47.9798L67.8021 41.8734L67.8902 53.2816L57.1655 59.4872Z" fill="white" stroke="#0062AD" stroke-width="1.5" stroke-miterlimit="10" stroke-linejoin="round"/>
<path d="M34.5815 55.0446V48.9823L93.0001 16.1908V21.702L34.5815 55.0446Z" fill="#DEEBF4" stroke="#0062AD" stroke-width="1.5" stroke-miterlimit="10" stroke-linejoin="round"/>
<path d="M34.5813 55.0447V48.9824L6.74982 33L7.10253 38.5663L34.5813 55.0447Z" fill="#DEEBF4" stroke="#0062AD" stroke-width="1.5" stroke-miterlimit="10" stroke-linejoin="round"/>
<path d="M64.6165 4.89297V1.86182L92.9991 16.1909L90.1002 17.8112L64.6165 4.89297Z" fill="#0062AD" stroke="#0062AD" stroke-width="1.5" stroke-miterlimit="10" stroke-linejoin="round"/>
<path d="M9.6378 34.6534L6.74994 33L64.6174 1.86182V4.89297L9.6378 34.6534Z" fill="#0062AD" stroke="#0062AD" stroke-width="1.5" stroke-miterlimit="10" stroke-linejoin="round"/>
</g>
</svg>
