<svg width="100" height="100" viewBox="0 0 100 100" fill="none" xmlns="http://www.w3.org/2000/svg">
<circle cx="50" cy="50" r="50" fill="white"/>
<path d="M70.7092 45.7826L53.2172 28.2904C52.3847 27.4583 51.2781 27 50.1016 27H31.4065C28.9767 27 27 28.9767 27 31.4065V50.1016C27 51.2782 27.4583 52.3847 28.2907 53.2175L45.7827 70.7092C46.6149 71.5416 47.7214 72 48.8984 72C50.0755 72 51.1821 71.5416 52.0143 70.7092L70.7091 52.0145C71.5415 51.1821 72 50.0756 72 48.8985C72 47.7214 71.5416 46.6148 70.7092 45.7826ZM68.632 49.9372L49.937 68.6321C49.6596 68.9095 49.2908 69.0545 48.8986 69.0545C48.5063 69.0545 48.1374 68.9104 47.86 68.6166H47.86L30.3682 51.1328C30.0906 50.855 29.9377 50.4938 29.9377 50.1016V31.4065C29.9377 30.5966 30.5966 29.9377 31.4065 29.9377H50.1016C50.4937 29.9377 50.8627 30.0906 51.1401 30.368L68.632 47.86C68.9094 48.1374 69.0623 48.5062 69.0623 48.8985C69.0623 49.2907 68.9095 49.6596 68.632 49.9372Z" fill="#2361A9"/>
<path d="M39.5618 34.0227C38.8219 33.2829 37.8383 32.8753 36.7923 32.8753C35.7448 32.8753 34.7608 33.2831 34.024 34.0217C33.2834 34.7606 32.8755 35.7446 32.8755 36.7922C32.8755 37.8381 33.283 38.8216 34.0218 39.5605C34.7609 40.3012 35.7448 40.7091 36.7923 40.7091C37.8383 40.7091 38.8218 40.3015 39.5618 39.5617C40.3016 38.8218 40.7092 37.8382 40.7092 36.7922C40.7092 35.7446 40.3014 34.7606 39.5618 34.0227ZM37.4846 37.4844C37.2968 37.6721 37.0575 37.7714 36.7923 37.7714C36.5269 37.7714 36.2878 37.6726 36.1001 37.4844C35.9124 37.2966 35.8131 37.0573 35.8131 36.7922C35.8131 36.5267 35.9119 36.2877 36.1012 36.0989C36.2878 35.9118 36.5268 35.813 36.7923 35.813C37.0575 35.813 37.2968 35.9123 37.4856 36.1011C37.6726 36.2877 37.7715 36.5267 37.7715 36.7922C37.7715 37.0573 37.6724 37.2966 37.4846 37.4844Z" fill="#2361A9"/>
<path d="M44.3131 46.897C42.595 45.179 39.7995 45.179 38.0815 46.897C36.3635 48.615 36.3635 51.4105 38.0815 53.1287C38.9405 53.9876 40.0689 54.4172 41.1974 54.4172C42.3259 54.4172 43.4541 53.9877 44.3131 53.1287C46.031 51.4107 46.031 48.6151 44.3131 46.897ZM42.2359 51.0514C41.6631 51.6241 40.7315 51.624 40.1587 51.0514C39.5859 50.4786 39.5859 49.5468 40.1587 48.9742C40.4451 48.6877 40.8211 48.5446 41.1974 48.5446C41.5735 48.5446 41.9496 48.6878 42.2359 48.9742C42.8085 49.5469 42.8085 50.4788 42.2359 51.0514Z" fill="#2361A9"/>
<path d="M61.9391 46.897C60.2209 45.179 57.4254 45.179 55.7074 46.897C53.9894 48.615 53.9894 51.4105 55.7074 53.1287C56.5665 53.9876 57.6948 54.4172 58.8233 54.4172C59.9519 54.4172 61.0801 53.9877 61.9392 53.1287C63.657 51.4107 63.657 48.6151 61.9391 46.897ZM59.8619 51.0514C59.2891 51.6241 58.3574 51.624 57.7847 51.0514C57.2119 50.4786 57.2119 49.5468 57.7847 48.9742C58.0711 48.6877 58.4471 48.5446 58.8233 48.5446C59.1994 48.5446 59.5756 48.6878 59.8619 48.9742C60.4345 49.5469 60.4345 50.4788 59.8619 51.0514Z" fill="#2361A9"/>
<path d="M50.0113 39.7298C49.2002 39.7298 48.5425 40.3874 48.5425 41.1986V58.8245C48.5425 59.6356 49.2001 60.2933 50.0113 60.2933C50.8225 60.2933 51.4801 59.6357 51.4801 58.8245V41.1986C51.4801 40.3874 50.8225 39.7298 50.0113 39.7298Z" fill="#2361A9"/>
</svg>
