<svg width="100" height="100" viewBox="0 0 100 100" fill="none" xmlns="http://www.w3.org/2000/svg">
<circle cx="50" cy="50" r="50" fill="#DEEBF5"/>
<mask id="mask0_2809_602" style="mask-type:luminance" maskUnits="userSpaceOnUse" x="27" y="27" width="45" height="45">
<path d="M27 27H72V72H27V27Z" fill="white"/>
</mask>
<g mask="url(#mask0_2809_602)">
<path fill-rule="evenodd" clip-rule="evenodd" d="M70.6816 72C71.4098 72 72 71.4097 72 70.6816V68.0449C72 67.3168 71.4098 66.7265 70.6816 66.7265H28.3184C27.5902 66.7265 27 67.3168 27 68.0449C27 68.773 27.5902 69.3633 28.3184 69.3633H69.3633V70.6816C69.3633 71.4097 69.9535 72 70.6816 72Z" fill="#1E579F"/>
<path fill-rule="evenodd" clip-rule="evenodd" d="M38.9531 72C39.6812 72 40.2715 71.4098 40.2715 70.6816V68.0449C40.2715 67.3168 39.6812 66.7266 38.9531 66.7266C38.225 66.7266 37.6348 67.3168 37.6348 68.0449V70.6816C37.6348 71.4098 38.225 72 38.9531 72Z" fill="#1E579F"/>
<path fill-rule="evenodd" clip-rule="evenodd" d="M46.8633 72C47.5914 72 48.1816 71.4098 48.1816 70.6816V68.0449C48.1816 67.3168 47.5914 66.7266 46.8633 66.7266C46.1352 66.7266 45.5449 67.3168 45.5449 68.0449V70.6816C45.5449 71.4098 46.1352 72 46.8633 72Z" fill="#1E579F"/>
<path fill-rule="evenodd" clip-rule="evenodd" d="M54.7734 72C55.5015 72 56.0918 71.4098 56.0918 70.6816V68.0449C56.0918 67.3168 55.5015 66.7266 54.7734 66.7266C54.0453 66.7266 53.4551 67.3168 53.4551 68.0449V70.6816C53.4551 71.4098 54.0453 72 54.7734 72Z" fill="#1E579F"/>
<path fill-rule="evenodd" clip-rule="evenodd" d="M62.6836 72C63.4117 72 64.002 71.4098 64.002 70.6816V68.0449C64.002 67.3168 63.4117 66.7266 62.6836 66.7266C61.9555 66.7266 61.3652 67.3168 61.3652 68.0449V70.6816C61.3652 71.4098 61.9555 72 62.6836 72Z" fill="#1E579F"/>
<path fill-rule="evenodd" clip-rule="evenodd" d="M30.9551 72C31.6832 72 32.2734 71.4098 32.2734 70.6816V28.3184C32.2734 27.5902 31.6832 27 30.9551 27H28.3184C27.5902 27 27 27.5902 27 28.3184C27 29.0465 27.5902 29.6367 28.3184 29.6367H29.6367V70.6816C29.6367 71.4098 30.227 72 30.9551 72Z" fill="#1E579F"/>
<path fill-rule="evenodd" clip-rule="evenodd" d="M27 36.3164C27 37.0445 27.5902 37.6348 28.3184 37.6348H30.9551C31.6832 37.6348 32.2734 37.0445 32.2734 36.3164C32.2734 35.5883 31.6832 34.998 30.9551 34.998H28.3184C27.5902 34.998 27 35.5883 27 36.3164Z" fill="#1E579F"/>
<path fill-rule="evenodd" clip-rule="evenodd" d="M27 44.2266C27 44.9547 27.5902 45.5449 28.3184 45.5449H30.9551C31.6832 45.5449 32.2734 44.9547 32.2734 44.2266C32.2734 43.4985 31.6832 42.9082 30.9551 42.9082H28.3184C27.5902 42.9082 27 43.4985 27 44.2266Z" fill="#1E579F"/>
<path fill-rule="evenodd" clip-rule="evenodd" d="M27 52.1367C27 52.8648 27.5902 53.4551 28.3184 53.4551H30.9551C31.6832 53.4551 32.2734 52.8648 32.2734 52.1367C32.2734 51.4086 31.6832 50.8184 30.9551 50.8184H28.3184C27.5902 50.8184 27 51.4086 27 52.1367Z" fill="#1E579F"/>
<path fill-rule="evenodd" clip-rule="evenodd" d="M27 60.1348C27 60.8629 27.5902 61.4531 28.3184 61.4531H30.9551C31.6832 61.4531 32.2734 60.8629 32.2734 60.1348C32.2734 59.4067 31.6832 58.8164 30.9551 58.8164H28.3184C27.5902 58.8164 27 59.4067 27 60.1348Z" fill="#1E579F"/>
</g>
<path fill-rule="evenodd" clip-rule="evenodd" d="M34.9102 62.7715C34.9102 63.4996 35.5004 64.0898 36.2285 64.0898H44.2266C44.9547 64.0898 45.5449 63.4996 45.5449 62.7715C45.5449 62.0434 44.9547 61.4531 44.2266 61.4531H37.5469V58.8164H44.2266C44.9547 58.8164 45.5449 58.2262 45.5449 57.498C45.5449 56.7699 44.9547 56.1797 44.2266 56.1797H36.2285C35.5004 56.1797 34.9102 56.7699 34.9102 57.498V62.7715Z" fill="#1E579F"/>
<path fill-rule="evenodd" clip-rule="evenodd" d="M42.9082 62.7715C42.9082 63.4996 43.4985 64.0898 44.2266 64.0898H52.1367C52.8648 64.0898 53.4551 63.4996 53.4551 62.7715C53.4551 62.0434 52.8648 61.4531 52.1367 61.4531H45.5449V53.4551H52.1367C52.8648 53.4551 53.4551 52.8648 53.4551 52.1367C53.4551 51.4086 52.8648 50.8184 52.1367 50.8184H44.2266C43.4985 50.8184 42.9082 51.4086 42.9082 52.1367V62.7715Z" fill="#1E579F"/>
<path fill-rule="evenodd" clip-rule="evenodd" d="M50.8184 62.7715C50.8184 63.4996 51.4086 64.0898 52.1367 64.0898H60.0469C60.775 64.0898 61.3652 63.4996 61.3652 62.7715C61.3652 62.0434 60.775 61.4531 60.0469 61.4531H53.4551V45.5449H60.0469C60.775 45.5449 61.3652 44.9547 61.3652 44.2266C61.3652 43.4985 60.775 42.9082 60.0469 42.9082H52.1367C51.4086 42.9082 50.8184 43.4985 50.8184 44.2266V62.7715Z" fill="#1E579F"/>
<mask id="mask1_2809_602" style="mask-type:luminance" maskUnits="userSpaceOnUse" x="27" y="27" width="45" height="45">
<path d="M27 27H72V72H27V27Z" fill="white"/>
</mask>
<g mask="url(#mask1_2809_602)">
<path fill-rule="evenodd" clip-rule="evenodd" d="M58.7285 62.7715C58.7285 63.4996 59.3188 64.0898 60.0469 64.0898H68.0449C68.773 64.0898 69.3633 63.4996 69.3633 62.7715V37.6348H70.6817C71.1935 37.6348 71.659 37.3386 71.8759 36.8749C72.0927 36.4113 72.0216 35.8641 71.6935 35.4713L65.0138 27.4733C64.7624 27.1722 64.3899 26.9987 63.9977 27C63.6054 27.0013 63.2341 27.1772 62.9846 27.4799L56.3928 35.4779C56.0683 35.8717 56.0001 36.4173 56.2178 36.8788C56.4355 37.3403 56.8999 37.6348 57.4102 37.6348H58.7285V62.7715ZM60.1981 35.0066L64.0087 30.3831L67.8723 35.0092C67.2258 35.0938 66.7266 35.6468 66.7266 36.3164V61.4531H61.3652V36.3164C61.3652 35.6394 60.855 35.0816 60.1981 35.0066Z" fill="#1E579F"/>
</g>
</svg>
