<svg width="100" height="100" viewBox="0 0 100 100" fill="none" xmlns="http://www.w3.org/2000/svg">
<circle cx="50" cy="50" r="50" fill="white"/>
<path d="M34.5899 27H29.3179C28.5901 27 28 27.5901 28 28.318V33.6778C28 34.4058 28.59 34.9958 29.318 34.9958C30.0459 34.9958 30.636 34.4058 30.636 33.6778V29.636H34.59C35.3179 29.636 35.908 29.0459 35.908 28.318C35.9079 27.5901 35.3178 27 34.5899 27Z" fill="#1E579F"/>
<path d="M71.6695 27H66.3976C65.6697 27 65.0796 27.5901 65.0796 28.318C65.0796 29.0459 65.6696 29.636 66.3976 29.636H70.3515V33.6778C70.3515 34.4058 70.9416 34.9958 71.6695 34.9958C72.3975 34.9958 72.9875 34.4058 72.9875 33.6778V28.318C72.9875 27.5901 72.3975 27 71.6695 27Z" fill="#1E579F"/>
<path d="M34.59 69.3513H30.636V65.3095C30.636 64.5816 30.0459 63.9915 29.318 63.9915C28.5901 63.9915 28 64.5816 28 65.3095V70.6693C28 71.3973 28.59 71.9873 29.318 71.9873H34.59C35.3179 71.9873 35.908 71.3973 35.908 70.6693C35.908 69.9414 35.3179 69.3513 34.59 69.3513Z" fill="#1E579F"/>
<path d="M71.6695 63.9915C70.9416 63.9915 70.3515 64.5816 70.3515 65.3095V69.3513H66.3976C65.6697 69.3513 65.0796 69.9414 65.0796 70.6693C65.0796 71.3973 65.6697 71.9873 66.3976 71.9873H71.6695C72.3975 71.9873 72.9875 71.3973 72.9875 70.6693V65.3095C72.9875 64.5816 72.3975 63.9915 71.6695 63.9915Z" fill="#1E579F"/>
<path d="M69.5104 37.8126L51.1542 27.1776C50.7456 26.9409 50.2413 26.9409 49.8327 27.1776L31.469 37.8125C31.0642 38.0471 30.8115 38.4838 30.8115 38.9521C30.8115 38.9547 30.8118 38.9573 30.8118 38.9599V60.047C30.8118 60.5197 31.0687 60.9622 31.4824 61.1951L49.8328 71.8225C50.0305 71.937 50.2657 72 50.4936 72C50.7315 72 50.964 71.9327 51.1543 71.8225L69.4973 61.195C69.5004 61.1932 69.5034 61.1915 69.5064 61.1897C69.9316 60.883 70.1607 60.6252 70.1671 60.0629C70.1672 60.0576 70.1676 60.0524 70.1676 60.0471V38.9601C70.1676 38.9574 70.1679 38.9548 70.1679 38.9522C70.1679 38.4835 69.915 38.0467 69.5104 37.8126ZM49.1755 68.3953L34.7767 60.0529L45.8772 53.6871C46.5087 53.325 46.727 52.5196 46.3648 51.8882C46.0028 51.2567 45.1974 51.0384 44.5659 51.4005L33.4475 57.7719V41.2303L49.1755 50.2628V68.3953ZM50.4935 47.98L34.7748 38.9483L50.4935 29.8412L66.2122 38.9483L50.4935 47.98ZM67.5402 57.7719L56.4211 51.4005C55.7897 51.0384 54.9843 51.2566 54.6222 51.8881C54.26 52.5196 54.4783 53.3249 55.1098 53.687L66.2103 60.0528L51.8114 68.3951V50.2628L67.5401 41.2303V57.7719H67.5402Z" fill="#1E579F"/>
</svg>
