<svg width="112" height="112" viewBox="0 0 112 112" fill="none" xmlns="http://www.w3.org/2000/svg">
<mask id="mask0_2515_1705" style="mask-type:alpha" maskUnits="userSpaceOnUse" x="0" y="0" width="112" height="112">
<rect width="112" height="112" fill="#D9D9D9"/>
</mask>
<g mask="url(#mask0_2515_1705)">
<path opacity="0.1294" d="M55.5 101C78.4198 101 97 90.3118 97 77.1274C97 63.943 78.4198 53.2549 55.5 53.2549C32.5802 53.2549 14 63.943 14 77.1274C14 90.3118 32.5802 101 55.5 101Z" fill="#0061AF"/>
<path d="M24.2327 77.5547L22.5971 76.4302C22.086 76.0213 21.7793 75.5102 21.7793 74.7946L22.1882 42.9008C22.1882 40.5497 23.5171 38.3008 25.5616 37.1763L73.6067 9.47366C74.629 8.86031 75.8557 8.86032 76.8779 9.37143L78.1046 9.98478" stroke="#0C63AD" stroke-width="1.5" stroke-miterlimit="10" stroke-linejoin="round"/>
<path d="M25.9697 80.0079V82.1546C25.9697 83.2791 26.5831 84.1991 27.5031 84.8125L52.5479 99.6349C55.4102 101.373 58.988 101.373 61.8503 99.6349L108.567 72.4434C109.589 71.83 110.202 70.8078 110.1 69.5811L109.998 67.23" fill="#0C63AD"/>
<path d="M25.9697 80.0079V82.1546C25.9697 83.2791 26.5831 84.1991 27.5031 84.8125L52.5479 99.6349C55.4102 101.373 58.988 101.373 61.8503 99.6349L108.567 72.4434C109.589 71.83 110.202 70.8078 110.1 69.5811L109.998 67.23" stroke="#0C63AD" stroke-width="1.5" stroke-miterlimit="10"/>
<path d="M23.3129 75.8168L23.5173 43.5141C23.5173 41.3674 24.744 39.3229 26.5841 38.1985L75.8559 9.78025C77.1848 8.96246 78.9226 9.9847 78.9226 11.6203L78.5137 44.1274C78.5137 46.2741 77.287 48.3186 75.447 49.3408L26.3796 77.5546C24.9485 78.3724 23.2107 77.4524 23.3129 75.8168Z" fill="#FDFDFD" stroke="#0C63AD" stroke-width="1.5" stroke-miterlimit="10"/>
<path d="M53.7762 97.6926L26.4825 80.9279C25.8691 80.519 25.8691 79.599 26.4825 79.1901L76.2654 50.5675C78.5144 49.3408 81.1722 49.3408 83.4211 50.5675L108.364 64.8788C110.408 66.1055 110.408 68.9677 108.364 70.1944L61.1363 97.7948C58.8874 99.1237 56.0251 99.0215 53.7762 97.6926Z" fill="#FDFDFD" stroke="#0C63AD" stroke-width="1.5" stroke-miterlimit="10"/>
<path d="M70.8467 56.701L73.6067 55.0654L76.5712 56.701L73.6067 58.4388L70.8467 56.701Z" fill="#0C63AD" stroke="#0C63AD" stroke-miterlimit="10" stroke-linejoin="round"/>
<path d="M75.4473 54.0432L78.2073 52.3054L81.1718 53.941L78.3095 55.781L75.4473 54.0432Z" fill="#0C63AD" stroke="#0C63AD" stroke-miterlimit="10" stroke-linejoin="round"/>
<path d="M66.1445 59.4609L68.9046 57.7231L71.8691 59.3587L68.9046 61.1988L66.1445 59.4609Z" fill="#0C63AD" stroke="#0C63AD" stroke-miterlimit="10" stroke-linejoin="round"/>
<path d="M61.4424 62.3232L64.2024 60.5854L67.1669 62.221L64.2024 64.0611L61.4424 62.3232Z" fill="#0C63AD" stroke="#0C63AD" stroke-miterlimit="10" stroke-linejoin="round"/>
<path d="M56.5352 65.0833L59.2952 63.4478L62.2597 65.0833L59.3974 66.8211L56.5352 65.0833Z" fill="#0C63AD" stroke="#0C63AD" stroke-miterlimit="10" stroke-linejoin="round"/>
<path d="M51.7305 67.8436L54.4905 66.208L57.455 67.8436L54.5927 69.5814L51.7305 67.8436Z" fill="#0C63AD" stroke="#0C63AD" stroke-miterlimit="10" stroke-linejoin="round"/>
<path d="M47.1309 70.5012L49.8909 68.7634L52.8554 70.399L49.9931 72.239L47.1309 70.5012Z" fill="#0C63AD" stroke="#0C63AD" stroke-miterlimit="10" stroke-linejoin="round"/>
<path d="M73.6074 60.5855L76.3675 58.8477L79.3319 60.4832L76.3675 62.221L73.6074 60.5855Z" fill="#0C63AD" stroke="#0C63AD" stroke-miterlimit="10" stroke-linejoin="round"/>
<path d="M79.5361 62.5277L82.2962 60.8921L85.2607 62.5277L82.2962 64.2655L79.5361 62.5277Z" fill="#0C63AD" stroke="#0C63AD" stroke-miterlimit="10" stroke-linejoin="round"/>
<path d="M82.3975 66.4124L85.1575 64.7769L88.122 66.4124L85.2597 68.1502L82.3975 66.4124Z" fill="#0C63AD" stroke="#0C63AD" stroke-miterlimit="10" stroke-linejoin="round"/>
<path d="M83.7266 71.0124L88.7355 68.1501L91.8022 69.888L86.5888 72.7502L83.7266 71.0124Z" fill="#0C63AD" stroke="#0C63AD" stroke-miterlimit="10" stroke-linejoin="round"/>
<path d="M90.2695 67.3323L97.1185 63.4478L100.185 64.9811L93.0296 69.0701L90.2695 67.3323Z" fill="#0C63AD" stroke="#0C63AD" stroke-miterlimit="10" stroke-linejoin="round"/>
<path d="M78.002 68.9679L80.762 67.3323L83.7265 68.9679L80.8642 70.7057L78.002 68.9679Z" fill="#0C63AD" stroke="#0C63AD" stroke-miterlimit="10" stroke-linejoin="round"/>
<path d="M73.6074 71.6257L76.3675 69.8879L79.3319 71.6257L76.3675 73.3635L73.6074 71.6257Z" fill="#0C63AD" stroke="#0C63AD" stroke-miterlimit="10" stroke-linejoin="round"/>
<path d="M68.9043 74.1814L71.6643 72.4436L74.6288 74.0792L71.7666 75.9192L68.9043 74.1814Z" fill="#0C63AD" stroke="#0C63AD" stroke-miterlimit="10" stroke-linejoin="round"/>
<path d="M64.5088 76.8391L67.2688 75.1013L70.2333 76.7369L67.2688 78.5769L64.5088 76.8391Z" fill="#0C63AD" stroke="#0C63AD" stroke-miterlimit="10" stroke-linejoin="round"/>
<path d="M60.0117 79.3949L62.7718 77.7593L65.7362 79.3949L62.874 81.1327L60.0117 79.3949Z" fill="#0C63AD" stroke="#0C63AD" stroke-miterlimit="10" stroke-linejoin="round"/>
<path d="M55.6152 81.9502L58.3753 80.2124L61.442 81.848L58.4775 83.688L55.6152 81.9502Z" fill="#0C63AD" stroke="#0C63AD" stroke-miterlimit="10" stroke-linejoin="round"/>
<path d="M58.8867 85.6305L63.8957 82.666L67.1668 84.1994L61.749 87.3683L58.8867 85.6305Z" fill="#0C63AD" stroke="#0C63AD" stroke-miterlimit="10" stroke-linejoin="round"/>
<path d="M65.6338 81.4392L82.0918 71.9324L85.0563 73.7724L68.496 83.2792L65.6338 81.4392Z" fill="#0C63AD" stroke="#0C63AD" stroke-miterlimit="10" stroke-linejoin="round"/>
<path d="M71.6641 83.5857L84.8509 75.9189L89.6554 78.5768L76.4686 86.448L71.6641 83.5857Z" fill="#0C63AD" stroke="#0C63AD" stroke-miterlimit="10" stroke-linejoin="round"/>
<path d="M75.1406 65.0833L77.9007 63.4478L80.8652 65.0833L78.0029 66.8211L75.1406 65.0833Z" fill="#0C63AD" stroke="#0C63AD" stroke-miterlimit="10" stroke-linejoin="round"/>
<path d="M70.8467 67.639L73.6067 66.0034L76.5712 67.639L73.6067 69.3768L70.8467 67.639Z" fill="#0C63AD" stroke="#0C63AD" stroke-miterlimit="10" stroke-linejoin="round"/>
<path d="M66.3486 70.1947L69.1087 68.5591L72.0732 70.1947L69.1087 71.9325L66.3486 70.1947Z" fill="#0C63AD" stroke="#0C63AD" stroke-miterlimit="10" stroke-linejoin="round"/>
<path d="M61.8516 72.9547L64.6116 71.3191L67.5761 72.9547L64.7138 74.6925L61.8516 72.9547Z" fill="#0C63AD" stroke="#0C63AD" stroke-miterlimit="10" stroke-linejoin="round"/>
<path d="M57.251 75.6126L60.011 73.8748L62.9755 75.5103L60.1132 77.2481L57.251 75.6126Z" fill="#0C63AD" stroke="#0C63AD" stroke-miterlimit="10" stroke-linejoin="round"/>
<path d="M52.7529 78.0658L55.513 76.4302L58.4775 78.0658L55.6152 79.8036L52.7529 78.0658Z" fill="#0C63AD" stroke="#0C63AD" stroke-miterlimit="10" stroke-linejoin="round"/>
<path d="M48.459 80.6214L51.219 78.9858L54.1835 80.6214L51.3212 82.3592L48.459 80.6214Z" fill="#0C63AD" stroke="#0C63AD" stroke-miterlimit="10" stroke-linejoin="round"/>
<path d="M40.4863 85.3237L46.5175 81.7458L49.482 83.3814L43.553 87.0615L40.4863 85.3237Z" fill="#0C63AD" stroke="#0C63AD" stroke-miterlimit="10" stroke-linejoin="round"/>
<path d="M45.3926 88.0838L53.7749 82.8704L57.1483 84.8126L48.4593 89.9238L45.3926 88.0838Z" fill="#0C63AD" stroke="#0C63AD" stroke-miterlimit="10" stroke-linejoin="round"/>
<path d="M49.4814 90.8438L57.1482 86.3459L60.5216 88.2882L52.8548 92.9905L49.4814 90.8438Z" fill="#0C63AD" stroke="#0C63AD" stroke-miterlimit="10" stroke-linejoin="round"/>
<path d="M78.002 57.9276L83.2154 54.8608L86.0776 56.5986L80.8642 59.5631L78.002 57.9276Z" fill="#0C63AD" stroke="#0C63AD" stroke-miterlimit="10" stroke-linejoin="round"/>
<path d="M68.9043 63.2432L71.6643 61.6077L74.6288 63.2432L71.7666 64.981L68.9043 63.2432Z" fill="#0C63AD" stroke="#0C63AD" stroke-miterlimit="10" stroke-linejoin="round"/>
<path d="M64.5088 66.0034L67.2688 64.2656L70.2333 65.9012L67.2688 67.639L64.5088 66.0034Z" fill="#0C63AD" stroke="#0C63AD" stroke-miterlimit="10" stroke-linejoin="round"/>
<path d="M60.1133 68.4569L62.8733 66.8213L65.94 68.4569L62.9755 70.1947L60.1133 68.4569Z" fill="#0C63AD" stroke="#0C63AD" stroke-miterlimit="10" stroke-linejoin="round"/>
<path d="M55.207 71.2166L57.9671 69.5811L60.9316 71.2166L57.9671 72.9544L55.207 71.2166Z" fill="#0C63AD" stroke="#0C63AD" stroke-miterlimit="10" stroke-linejoin="round"/>
<path d="M50.8115 73.8746L53.5716 72.239L56.5361 73.8746L53.6738 75.6124L50.8115 73.8746Z" fill="#0C63AD" stroke="#0C63AD" stroke-miterlimit="10" stroke-linejoin="round"/>
<path d="M46.3135 76.2258L49.0735 74.488L52.038 76.1236L49.0735 77.8614L46.3135 76.2258Z" fill="#0C63AD" stroke="#0C63AD" stroke-miterlimit="10" stroke-linejoin="round"/>
<path d="M35.6816 82.7681L44.4729 77.5547L47.4374 79.1903L38.6461 84.4037L35.6816 82.7681Z" fill="#0C63AD" stroke="#0C63AD" stroke-miterlimit="10" stroke-linejoin="round"/>
<path d="M42.4287 73.2613L45.1888 71.6257L48.1532 73.2613L45.1888 74.9991L42.4287 73.2613Z" fill="#0C63AD" stroke="#0C63AD" stroke-miterlimit="10" stroke-linejoin="round"/>
<path d="M37.624 76.2258L40.3841 74.488L43.3486 76.1236L40.4863 77.8614L37.624 76.2258Z" fill="#0C63AD" stroke="#0C63AD" stroke-miterlimit="10" stroke-linejoin="round"/>
<path d="M30.9795 79.8037L33.7395 78.0659L36.704 79.7015L33.8418 81.5415L30.9795 79.8037Z" fill="#0C63AD" stroke="#0C63AD" stroke-miterlimit="10" stroke-linejoin="round"/>
<path d="M89.7581 65.901L86.1803 63.8566L88.0203 62.6299L83.5225 60.0743L88.1225 57.7231L96.1982 62.1188L89.7581 65.901Z" fill="#0C63AD" stroke="#0C63AD" stroke-miterlimit="10" stroke-linejoin="round"/>
<path d="M29.9565 14.5848L26.2765 12.1315C26.2765 12.1315 25.6631 11.6203 24.7431 12.1315C23.8231 12.6426 8.59176 21.4338 8.59176 21.4338C8.59176 21.4338 5.72949 22.6605 5.72949 25.625C5.72949 28.5895 5.83171 67.8434 5.83171 67.8434C5.83171 67.8434 5.83172 68.8656 6.64951 69.3768C7.4673 69.7857 10.4318 71.0123 11.1473 71.1146C11.6585 71.2168 12.2718 70.7057 12.2718 70.7057C12.2718 70.7057 11.0451 71.4212 10.2273 70.6034C9.81844 70.1945 9.92066 69.0701 9.92066 68.4567V27.5672C9.92066 27.5672 9.92067 24.9094 12.374 23.785C14.7252 22.6605 28.7298 14.5848 28.7298 14.5848C28.7298 14.5848 29.3432 14.1759 29.9565 14.5848Z" fill="white" stroke="#0061B1" stroke-width="1.5" stroke-miterlimit="10"/>
<path d="M9.81836 69.7856V27.6694C9.81836 26.0338 10.6361 24.6027 12.0673 23.7849L28.6275 14.4825C29.4453 13.9714 30.4676 14.5848 30.4676 15.607L30.2631 58.1321C30.2631 59.2565 29.6498 60.2788 28.6275 60.8921L11.7606 70.8078C10.9428 71.4212 9.81836 70.8078 9.81836 69.7856Z" fill="#FDFDFD" stroke="#0061B1" stroke-width="1.5" stroke-miterlimit="10"/>
<path d="M14.3164 22.5583L15.3386 23.2738C15.7475 23.5805 16.3609 23.5805 16.7698 23.3761L23.5165 19.5938C24.0277 19.2871 24.4366 18.776 24.5388 18.1626L24.7432 16.8337L14.3164 22.5583Z" fill="#0061B1" stroke="#0061B1" stroke-width="0.5" stroke-miterlimit="10"/>
<path d="M17.2811 22.1494C17.0767 21.9449 17.1789 21.8427 17.2811 21.7405L22.5968 18.776C22.699 18.6738 22.8012 18.776 22.9034 18.8782L23.0057 18.9804C23.1079 19.0827 23.0057 19.1849 22.9034 19.2871L17.4856 22.2516C17.3833 22.2516 17.2811 22.2516 17.2811 22.1494Z" fill="white"/>
<path d="M6.95605 32.8829V29.1006C6.95605 28.6917 7.26273 28.385 7.67162 28.385C8.08052 28.385 8.38719 28.6917 8.38719 29.1006V32.8829C8.38719 33.2918 8.08052 33.5984 7.67162 33.5984C7.26273 33.4962 6.95605 33.2918 6.95605 32.8829Z" fill="#0061B1"/>
<path d="M6.95605 38.6075V34.8252C6.95605 34.4163 7.26273 34.1096 7.67162 34.1096C8.08052 34.1096 8.38719 34.4163 8.38719 34.8252V38.6075C8.38719 39.0164 8.08052 39.323 7.67162 39.323C7.26273 39.323 6.95605 39.0164 6.95605 38.6075Z" fill="#0061B1"/>
<path d="M40.1978 33.8733L63.1588 21.3292C63.5782 21.1301 63.9976 21.4288 63.9976 21.9266V50.7979C63.9976 51.2957 63.5782 51.9926 63.1588 52.1917L40.1978 64.1384C39.7784 64.3376 39.4639 64.0389 39.4639 63.5411V35.2671C39.4639 34.5702 39.8832 34.0724 40.1978 33.8733Z" fill="#0061AF" stroke="#0061B1" stroke-width="1.5"/>
<path fill-rule="evenodd" clip-rule="evenodd" d="M40.739 44.2672V34.9393L48.067 30.7225V40.0504L40.739 44.2672ZM41.8761 42.4783L47.1826 39.4115V32.767L41.8761 35.8337V42.4783ZM54.6369 27.0169L49.2041 30.0836V31.3614L50.3412 30.7225V32.0003L51.4783 31.3614V30.3392L52.6153 29.7003V30.9781L53.7524 30.3392V31.617L54.8895 30.9781V27.0169H54.6369ZM55.5213 26.5058V35.9615L62.9756 31.7448V22.2891L55.5213 26.5058ZM62.0911 30.8503L56.6584 33.917V27.2725L62.0911 24.2058V30.8503ZM46.0455 34.5559L42.8869 36.3448V40.306L46.0455 38.5171V34.5559ZM57.7955 27.9114L60.9541 26.1225V30.0836L57.7955 31.8725V27.9114ZM50.3412 33.4059L49.2041 34.0448V35.3226L50.3412 34.6837V35.9615L54.6369 33.5337V32.2559L53.4998 32.8948V31.617L52.3627 32.2559V33.5337L50.3412 34.6837V33.4059ZM50.3412 37.6226L49.2041 38.2615V39.5393L50.3412 38.9004V37.6226ZM51.2256 37.1115L52.3627 36.4726V37.7504L51.2256 38.3893V37.1115ZM43.8976 44.0116L42.7605 44.6505V47.3339L41.6234 47.9728V49.2506L40.4863 49.8895V51.1673L41.6234 50.5284V51.8062L42.7605 51.1673V48.4839L43.8976 47.845V46.5672L45.0347 45.9283V48.6117L46.1718 47.9728V49.2506L49.3304 47.4617V48.7395L50.4675 48.1006V49.7617L49.2041 50.2728V52.9562L51.2256 51.8062V54.4895L50.0885 55.1284V56.4062L52.11 55.2562V52.5728L53.2471 51.9339V55.8951L54.3842 55.2562V53.9784L55.5213 53.3395V54.6173L56.6584 53.9784V51.295L54.6369 52.4451V49.7617L52.6153 50.9117V49.6339L51.4783 50.2728V48.995L52.6153 48.3561V47.0783L53.7524 46.4394V45.1616L52.6153 45.8005V44.5227L51.4783 45.2894V44.0116L50.3412 44.6505V45.9283L47.1826 47.7172V46.4394L46.0455 47.0783V45.8005L47.1826 45.1616V43.8838L48.3197 43.2449V44.5227L47.1826 45.1616V46.4394L48.3197 45.8005V44.5227L49.4567 43.8838V45.1616L50.5938 44.5227V43.2449L52.6153 42.0949V44.7783L53.7524 44.1394V45.4172L54.8895 44.7783V46.0561L56.0266 45.4172V44.1394L57.1637 43.5005V38.006L56.0266 38.6449V37.3671L54.8895 38.006V35.3226L53.7524 35.9615V38.6449L51.7309 39.7949V38.5171L50.4675 39.4115V40.6893L49.3304 41.3282V42.606L48.1933 43.2449V41.9671L45.0347 43.756V45.0338L43.8976 45.6727V44.0116ZM52.3627 41.8394V40.5616L53.4998 39.9227V41.2005L52.3627 41.8394ZM58.6799 35.4504L59.817 34.8115V37.4948L58.6799 38.1337V39.4115L57.5428 40.1782V38.9004L58.6799 38.2615V35.4504ZM62.9756 33.0226L61.8385 33.6615V34.9393L60.7014 35.5782V38.2615L62.7229 37.1115V33.1503L62.9756 33.0226ZM40.739 46.9505L41.8761 46.3116V47.5894L40.739 48.2283V46.9505ZM55.5213 42.7338L54.3842 43.3727V40.6893L55.5213 40.0504V42.7338ZM57.7955 41.456L58.9325 40.8171V42.0949L60.0696 41.456V45.4172L58.0481 46.5672V47.845L56.7847 48.4839V45.9283L55.6476 46.5672V45.2894L56.7847 44.6505V43.3727L57.9218 42.7338V45.2894L59.0589 44.6505V41.9671L57.9218 42.7338V41.456H57.7955ZM62.9756 38.5171L61.8385 39.156V40.4338L60.7014 41.0727V43.756L61.8385 43.1172V45.8005L62.9756 45.1616V38.5171ZM40.739 63.1786V53.8506L48.067 49.6339V58.9618L40.739 63.1786ZM41.8761 61.1341L47.1826 58.1952V51.5506L41.8761 54.6173V61.1341ZM54.6369 47.3339L55.7739 46.695V49.3784L54.6369 50.0173V47.3339ZM46.0455 53.5951L42.8869 55.384V59.3452L46.0455 57.5563V53.5951ZM59.817 45.8005L60.9541 45.1616V46.4394L62.0911 45.8005V47.0783L60.0696 48.2283V45.6727L59.817 45.8005ZM50.3412 53.5951L49.2041 54.234V55.5118L50.3412 54.8729V53.5951ZM57.7955 49.5061L58.9325 48.8672V50.145L57.7955 50.7839V49.5061ZM62.9756 46.5672L61.8385 47.0783V48.3561L59.817 49.5061V52.1895L62.9756 50.4006V49.1228L61.8385 49.8895V48.6117L62.9756 47.9728V46.5672ZM58.6799 51.6784L57.5428 52.3173V53.5951L58.6799 52.9562V51.6784Z" fill="white"/>
<path d="M12.3731 33.8031L27.8089 25.523C28.1156 25.3185 28.4222 25.523 28.4222 26.1363V49.8522C28.4222 50.3633 28.2178 50.8744 27.8089 51.0789L12.3731 59.2568C12.0664 59.4612 11.7598 59.2568 11.7598 58.6435V35.0298C11.7598 34.5186 12.0664 34.0075 12.3731 33.8031Z" fill="#0061AF" stroke="#0061B1" stroke-width="1.5"/>
<path fill-rule="evenodd" clip-rule="evenodd" d="M13.9069 42.3899V36.2564L17.9959 34.1097V40.2432L13.9069 42.3899ZM14.5203 41.1632L17.4847 39.6298V35.3364L14.5203 36.8698V41.1632ZM21.4715 32.1675L18.6092 33.7008V34.6209L19.2225 34.3142V35.2342L19.8359 34.9275V34.0075L20.4492 33.7008V34.6209L21.0626 34.3142V35.2342L21.6759 34.9275L21.4715 32.1675ZM22.0848 31.8608V37.9942L26.1738 35.8475V29.7141L22.0848 31.8608ZM25.6626 35.132L22.6982 36.6653V32.3719L25.6626 30.8386V35.132ZM16.7692 36.2564L15.0314 37.1764V39.8343L16.7692 38.9142V36.2564ZM23.2093 32.883L24.9471 31.963V34.6209L23.2093 35.5409V32.883ZM19.1203 35.9498L18.507 36.2564V37.1764L19.1203 36.8698V37.7898L21.4715 36.5631V35.6431L20.8581 35.9498V35.0297L20.2448 35.3364V36.2564L19.1203 36.8698V35.9498ZM19.1203 38.6076L18.507 38.9142V39.8343L19.1203 39.5276V38.6076ZM19.7337 38.3009L20.347 37.9942V38.9142L19.7337 39.2209V38.3009ZM15.6447 42.0832L15.0314 42.3899V44.2299L14.418 44.5366V45.4566L13.8047 45.7632V46.6833L14.418 46.3766V47.2966L15.0314 46.9899V45.1499L15.6447 44.8432V43.9232L16.2581 43.6165V45.4566L16.8714 45.1499V46.0699L18.6092 45.1499V46.0699L19.2225 45.7632V46.6833L18.6092 46.9899V48.83L19.7337 48.2166V50.0566L19.1203 50.3633V51.2833L20.2448 50.67V48.83L20.8581 48.5233V51.1811L21.4715 50.8744V49.9544L22.0848 49.6477V50.5678L22.6982 50.2611V48.4211L21.5737 49.0344V47.1944L20.4492 47.8077V46.8877L19.8359 47.1944V46.2744L20.4492 45.9677V45.0477L21.0626 44.741V43.821L20.4492 44.1277V43.2076L19.8359 43.5143V42.5943L19.1203 42.901V43.821L17.3825 44.741V43.821L16.7692 44.1277V43.2076L17.3825 42.901V41.981L17.9959 41.6743V42.5943L17.3825 42.901V43.821L17.9959 43.5143V42.5943L18.6092 42.2876V43.2076L19.2225 42.901V41.981L20.347 41.3676V43.2076L20.9603 42.901V43.821L21.5737 43.5143V44.4343L22.187 44.1277V43.2076L22.8004 42.901V39.5276L22.187 39.8343V38.9142L21.5737 39.2209V37.3809L20.9603 37.6876V39.5276L19.8359 40.1409V39.2209L19.2225 39.5276V40.4476L18.6092 40.7543V41.6743L17.9959 41.981V41.0609L16.2581 41.981V42.901L15.6447 43.2076V42.0832ZM20.347 41.3676V40.4476L20.9603 40.1409V41.0609L20.347 41.3676ZM23.9248 37.6876L24.5382 37.3809V39.2209L23.9248 39.5276V40.4476L23.3115 40.7543V39.8343L23.9248 39.5276V37.6876ZM26.276 36.4609L25.6626 36.7676V37.6876L25.0493 37.9942V39.8343L26.1738 39.2209L26.276 36.4609ZM13.9069 43.9232L14.5203 43.6165V44.5366L13.9069 44.8432V43.9232ZM22.0848 42.2876L21.4715 42.5943V40.7543L22.0848 40.4476V42.2876ZM23.2093 41.6743L23.8226 41.3676V42.2876L24.5382 41.8787V44.5366L23.4137 45.1499V46.0699L22.8004 46.3766V44.5366L22.187 44.9455V44.0254L22.8004 43.7188V42.7988L23.4137 42.4921V44.3321L23.9248 43.9232V42.0832L23.3115 42.3899V41.4698L23.2093 41.6743ZM26.276 40.0387L25.6626 40.3454V41.2654L25.0493 41.5721V43.4121L25.6626 43.1054V44.9455L26.276 44.6388V40.0387ZM13.9069 54.35V48.2166L17.9959 46.0699V52.2033L13.9069 54.35ZM14.5203 53.3278L17.4847 51.7944V47.501L14.5203 49.0344V53.3278ZM21.4715 45.1499L22.0848 44.8432V46.6833L21.4715 46.9899V45.1499ZM16.8714 48.5233L15.1336 49.4433V52.1011L16.8714 51.1811V48.5233ZM24.5382 44.3321L25.1515 44.0254V44.9455L25.7649 44.6388V45.5588L24.6404 46.1721L24.5382 44.3321ZM19.1203 49.0344L18.507 49.3411V50.2611L19.1203 49.9544V49.0344ZM23.2093 46.8877L23.8226 46.581V47.501L23.2093 47.8077V46.8877ZM26.276 45.2521L25.6626 45.5588V46.4788L24.5382 47.0921V48.9322L26.276 48.0122V47.0921L25.6626 47.3988V46.4788L26.276 46.1721V45.2521ZM23.9248 48.3188L23.3115 48.6255V49.5455L23.9248 49.2388V48.3188Z" fill="white"/>
</g>
</svg>
