<svg width="100" height="100" viewBox="0 0 100 100" fill="none" xmlns="http://www.w3.org/2000/svg">
<circle cx="50" cy="50" r="50" fill="#DEEBF5"/>
<mask id="mask0_2809_608" style="mask-type:luminance" maskUnits="userSpaceOnUse" x="27" y="28" width="45" height="45">
<path d="M27 28H72V73H27V28Z" fill="white"/>
</mask>
<g mask="url(#mask0_2809_608)">
<path fill-rule="evenodd" clip-rule="evenodd" d="M34.4033 71.7297C34.4034 71.7296 34.4034 71.7296 34.4034 71.7296L42.1259 64.0071L42.1259 64.0071C43.8196 62.3135 43.8196 59.5676 42.1259 57.8739C40.4323 56.1803 37.6864 56.1803 35.9927 57.8739L35.9927 57.8739L28.2703 65.5965C28.2703 65.5965 28.2702 65.5965 28.2702 65.5965C26.5766 67.2901 26.5766 70.036 28.2702 71.7296C29.9638 73.4233 32.7098 73.4233 34.4033 71.7297ZM32.5389 69.8652C31.875 70.5291 30.7986 70.5292 30.1347 69.8652C29.4707 69.2012 29.4708 68.1248 30.1346 67.461L30.1347 67.461L37.8572 59.7384C38.5211 59.0744 39.5976 59.0744 40.2615 59.7384C40.9254 60.4023 40.9254 61.4788 40.2615 62.1427L32.5389 69.8652L32.5389 69.8652Z" fill="#2361A9"/>
<path fill-rule="evenodd" clip-rule="evenodd" d="M45.126 53.0098L40.2617 57.8741L42.1261 59.7385L46.9904 54.8743L45.126 53.0098Z" fill="#2361A9"/>
<path fill-rule="evenodd" clip-rule="evenodd" d="M65.5245 53.0098C60.4063 58.1279 52.1082 58.1279 46.99 53.0098L46.99 53.0098C41.8718 47.8916 41.8718 39.5935 46.99 34.4753L46.9901 34.4753C52.1082 29.3571 60.4063 29.3571 65.5245 34.4753L66.4567 33.5431L65.5245 34.4753C70.6426 39.5935 70.6426 47.8916 65.5245 53.0098ZM45.1256 54.8742C51.2735 61.0221 61.2411 61.0221 67.3889 54.8742C73.5368 48.7264 73.5368 38.7587 67.3889 32.6109C61.2411 26.463 51.2734 26.463 45.1256 32.6109C38.9777 38.7587 38.9777 48.7264 45.1256 54.8742C45.1256 54.8742 45.1256 54.8742 45.1256 54.8742Z" fill="#2361A9"/>
<path fill-rule="evenodd" clip-rule="evenodd" d="M49.5776 50.6862C50.3057 50.6862 50.896 50.0959 50.896 49.3678V45.1486C50.896 44.4205 50.3057 43.8302 49.5776 43.8302C48.8495 43.8302 48.2593 44.4205 48.2593 45.1486V49.3678C48.2593 50.0959 48.8495 50.6862 49.5776 50.6862Z" fill="#2361A9"/>
<path fill-rule="evenodd" clip-rule="evenodd" d="M53.9722 50.6862C54.7003 50.6862 55.2905 50.0959 55.2905 49.3678V40.7541C55.2905 40.026 54.7003 39.4357 53.9722 39.4357C53.2441 39.4357 52.6538 40.026 52.6538 40.7541V49.3678C52.6538 50.0959 53.2441 50.6862 53.9722 50.6862Z" fill="#2361A9"/>
<path fill-rule="evenodd" clip-rule="evenodd" d="M58.3667 50.6862C59.0948 50.6862 59.6851 50.0959 59.6851 49.3678V42.5119C59.6851 41.7838 59.0948 41.1935 58.3667 41.1935C57.6386 41.1935 57.0483 41.7838 57.0483 42.5119V49.3678C57.0483 50.0959 57.6386 50.6862 58.3667 50.6862Z" fill="#2361A9"/>
<path fill-rule="evenodd" clip-rule="evenodd" d="M62.7612 50.6862C63.4893 50.6862 64.0796 50.0959 64.0796 49.3678V38.1174C64.0796 37.3892 63.4893 36.799 62.7612 36.799C62.0331 36.799 61.4429 37.3892 61.4429 38.1174V49.3678C61.4429 50.0959 62.0331 50.6862 62.7612 50.6862Z" fill="#2361A9"/>
</g>
</svg>
