<svg width="112" height="112" viewBox="0 0 112 112" fill="none" xmlns="http://www.w3.org/2000/svg">
<mask id="mask0_2515_1773" style="mask-type:alpha" maskUnits="userSpaceOnUse" x="0" y="0" width="112" height="112">
<rect width="112" height="112" fill="#D9D9D9"/>
</mask>
<g mask="url(#mask0_2515_1773)">
<mask id="mask1_2515_1773" style="mask-type:alpha" maskUnits="userSpaceOnUse" x="16" y="9" width="81" height="91">
<rect x="16" y="9" width="80.6383" height="90.2381" fill="#D9D9D9"/>
</mask>
<g mask="url(#mask1_2515_1773)">
<path d="M55.5326 99.2381C77.3659 99.2381 95.0653 89.2631 95.0653 76.9584C95.0653 64.6537 77.3659 54.6787 55.5326 54.6787C33.6994 54.6787 16 64.6537 16 76.9584C16 89.2631 33.6994 99.2381 55.5326 99.2381Z" fill="#DEEBF5"/>
<path d="M29.1136 39.2643L21.3613 29.1979L40.7998 18.0002L55.5073 23.3227L29.1136 39.2643Z" fill="#0061AF" stroke="#0061AF" stroke-width="1.5" stroke-miterlimit="10" stroke-linejoin="round"/>
<path d="M55.5195 23.4384L82.466 39.29L89.5755 29.1594L70.3041 17.9231L55.5195 23.4384Z" fill="#0061AF" stroke="#0061AF" stroke-width="1.5" stroke-miterlimit="10" stroke-linejoin="round"/>
<path d="M55.4297 54.4605L55.5068 87.4494L82.4276 71.752L82.1319 52.5835" fill="white"/>
<path d="M55.4297 54.4605L55.5068 87.4494L82.4276 71.752L82.1319 52.5835" stroke="#0061AF" stroke-width="1.5" stroke-miterlimit="10" stroke-linejoin="round"/>
<path d="M55.5068 87.4491L28.4189 71.816C28.4189 71.816 28.4189 52.5704 28.6118 52.6089C28.8046 52.6604 55.5197 55.553 55.5197 55.553L55.5068 87.4491Z" fill="white" stroke="#0061AF" stroke-width="1.5" stroke-miterlimit="10" stroke-linejoin="round"/>
<path d="M51.5892 3.36017C51.5892 3.36017 51.6067 40.4819 51.7287 40.3068C51.8507 40.1318 46.0459 44.6238 46.0459 44.6238L55.8077 53.6854L65.4301 31.7702L59.7996 35.1732L59.5207 -1.55957L51.5892 3.36017Z" stroke="white" stroke-width="1.5" stroke-miterlimit="10" stroke-linejoin="round"/>
<path d="M52.5756 15.2621C52.5756 15.2621 52.5884 39.8045 52.6784 39.6888C52.7684 39.5731 48.4873 42.5429 48.4873 42.5429L55.6867 48.5338L62.7833 34.045L58.6308 36.2948L58.4251 12.0095L52.5756 15.2621Z" fill="#0061AF" stroke="#0061AF" stroke-width="1.5" stroke-miterlimit="10" stroke-linejoin="round"/>
<path d="M29.0111 39.0327L55.5076 54.6915L40.7487 59.5254L21.4131 48.4434L29.0111 39.0327Z" fill="#0061AF" stroke="#0061AF" stroke-width="1.5" stroke-miterlimit="10" stroke-linejoin="round"/>
<path d="M55.5068 54.6915L71.3199 59.564L90.077 48.2249L82.0162 39.0327L55.5068 54.6915Z" fill="#0061AF" stroke="#0061AF" stroke-width="1.5" stroke-miterlimit="10" stroke-linejoin="round"/>
</g>
</g>
</svg>
