<svg width="90" height="90" viewBox="0 0 90 90" fill="none" xmlns="http://www.w3.org/2000/svg">
<mask id="mask0_2620_12715" style="mask-type:alpha" maskUnits="userSpaceOnUse" x="0" y="0" width="90" height="90">
<rect width="90" height="90" fill="#D9D9D9"/>
</mask>
<g mask="url(#mask0_2620_12715)">
<path opacity="0.1294" d="M45.4019 81.9639C63.8196 81.9639 78.7501 73.3753 78.7501 62.7807C78.7501 52.186 63.8196 43.5974 45.4019 43.5974C26.9842 43.5974 12.0537 52.186 12.0537 62.7807C12.0537 73.3753 26.9842 81.9639 45.4019 81.9639Z" fill="#0061AF"/>
<path d="M61.6612 3.60032L57.0956 0.478171C57.0956 0.478171 56.3273 -0.166257 55.1469 0.422617C53.9777 1.0226 34.9584 12.0668 34.9584 12.0668C34.9584 12.0668 31.3394 13.6223 31.3394 17.3444C31.3394 21.0666 31.4284 70.0431 31.4284 70.0431C31.4284 70.0431 31.4284 71.3431 32.4529 71.9431C33.4217 72.4986 37.1521 73.9319 38.0206 74.0875C38.6999 74.2097 39.4794 73.5764 39.4794 73.5764C39.4794 73.5764 37.9315 74.5097 36.9071 73.4986C36.3726 72.9653 36.5173 71.6098 36.5173 70.7876L36.5285 19.711C36.5285 19.711 36.5841 16.3889 39.5462 15.0111C42.5082 13.6334 60.0688 3.56698 60.0688 3.56698C60.0688 3.56698 60.8706 3.08922 61.6612 3.60032Z" fill="white" stroke="#0061B1" stroke-width="1.5" stroke-miterlimit="10"/>
<path d="M36.5278 72.4319V19.9332C36.5278 17.9333 37.608 16.1 39.3562 15.1222L60.0682 3.56696C61.1149 2.97808 62.4066 3.74473 62.3955 4.93359L62.1505 58.0212C62.1394 59.4434 61.3821 60.7544 60.1572 61.4655L39.011 73.8541C37.9086 74.4985 36.5278 73.7097 36.5278 72.4319Z" fill="white" stroke="#0061B1" stroke-width="1.5" stroke-miterlimit="10"/>
<path d="M42.1187 13.5778L43.3881 14.4333C43.9337 14.8 44.6353 14.8333 45.2032 14.5111L53.5882 9.77786C54.234 9.4112 54.6906 8.77788 54.8242 8.04457L55.136 6.32239L42.1187 13.5778Z" fill="#0061B1" stroke="#0061B1" stroke-width="1.5" stroke-miterlimit="10"/>
<path d="M45.7601 12.9889L45.6822 12.8445C45.6153 12.7222 45.6599 12.5778 45.7824 12.5111L52.4748 8.86678C52.5973 8.80012 52.742 8.84456 52.8088 8.96678L52.8868 9.11122C52.9536 9.23344 52.9091 9.37788 52.7866 9.44454L46.0942 13.0889C45.9717 13.1556 45.8269 13.1111 45.7601 12.9889Z" fill="white"/>
<path d="M32.9417 26.411V21.7444C32.9417 21.2889 33.3203 20.9111 33.7768 20.9111C34.2334 20.9111 34.612 21.2889 34.612 21.7444V26.411C34.612 26.8665 34.2334 27.2443 33.7768 27.2443C33.3091 27.2443 32.9417 26.8665 32.9417 26.411Z" fill="#0061B1"/>
<path d="M32.9417 33.5774V28.9108C32.9417 28.4553 33.3203 28.0775 33.7768 28.0775C34.2334 28.0775 34.612 28.4553 34.612 28.9108V33.5774C34.612 34.0329 34.2334 34.4107 33.7768 34.4107C33.3091 34.4107 32.9417 34.0329 32.9417 33.5774Z" fill="#0061B1"/>
<rect x="46.4294" y="20.2997" width="30.7667" height="30.6954" rx="1.25" fill="#0061AF" stroke="#0061B1" stroke-width="1.5"/>
<path fill-rule="evenodd" clip-rule="evenodd" d="M50.1606 31.4741V24.0214H57.9286V31.4741H50.1606ZM51.2705 30.4093H56.8188V25.0862H51.2705V30.4093ZM64.5867 24.0214H59.0384L59.0385 25.0859H60.148V26.1505H61.2576V25.0859H62.3675V26.1505H63.4771V27.2155H64.5867V24.0214ZM65.6962 24.0214V31.4741H73.4642V24.0214H65.6962ZM72.3543 30.4093H66.8064V25.0862H72.3548V30.4093H72.3543ZM55.7091 26.1504H52.3799V29.3445H55.7091V26.1504ZM67.9154 26.1504H71.2446V29.3445H67.9154V26.1504ZM60.1483 27.2155H59.0384V28.2801H60.1482V29.3446H64.5867V28.2801H63.4771V27.2155H62.3675L62.3677 28.2801H60.1483V27.2155ZM60.1483 30.4093H59.0384V31.4739H60.1483V30.4093ZM61.2574 30.4093H62.3673V31.4739H61.2574V30.4093ZM53.4901 32.5389H52.38V34.668H51.2704V35.7329H50.1608V36.7974H51.2704V37.862H52.38V35.7329H53.4901V34.668H54.5996V36.7974H55.7092V37.862H59.0385V38.9267H60.148V39.9915H59.0385V42.1206H61.2576V44.2502H60.148V45.3144H62.3675V43.1852H63.4771V46.3793H64.5867V45.3144H65.6965V46.3793H66.8064V44.2502H64.5867V42.1206H62.3675V41.0558H61.2576V39.9915H62.3675V38.9267H63.4771V37.862H62.3675V36.7974H61.2576V35.7329H60.148V36.7974H56.8188V35.7329H55.7092V34.668H56.8188V33.6034H57.9284V34.6676H56.8188V35.7325H57.9287V34.6678H59.038V35.7326H60.1479V34.6678H62.3671V36.7969H63.4767V37.8617H64.5866V38.9263H65.6962V37.8617H66.8061V33.6034L65.6962 33.6032V32.5387H64.5866V30.4096H63.4767V32.5387H61.2575V31.4741H60.1479V32.5387H59.038V33.6032H57.9287V32.5389H54.5996V33.6034H53.4901V32.5389ZM62.3671 34.6678V33.6032H63.4767V34.6678H62.3671ZM69.0252 32.5389H70.1348V34.668H69.0253V35.7325H67.9154V34.6676H69.0252V32.5389ZM73.4643 32.5389H72.3544V33.6034H71.2451V35.7329H73.4643V32.5389ZM50.1606 33.6033H51.2702V34.6678H50.1606V33.6033ZM65.6962 36.7972H64.5866V34.6681H65.6962V36.7972ZM67.9154 36.7972H69.0253V37.8616H70.1349V41.0554H67.9154V42.1203H66.8061V39.9912H65.6962V38.9263H66.8061V37.8616H67.9154V39.9912H69.0253V37.862H67.9154V36.7972ZM73.4643 36.7972H72.3544V37.8616H71.2451V39.9912H72.3544V42.1203H73.4643V36.7972ZM50.1606 46.3791V38.9264H57.9286V46.3791H50.1606ZM51.2705 45.3143H56.8188V39.9916H51.2705V45.3143ZM64.5864 39.9912H65.696V42.1203H64.5864V39.9912ZM55.7091 41.0556H52.3799V44.2497H55.7091V41.0556ZM70.1352 41.0556H71.2452V42.1204H72.3545V43.185H70.1352V41.0556ZM60.1483 43.1851H59.0384V44.25H60.1483V43.1851ZM67.9154 43.1851H69.0253V44.25H67.9154V43.1851ZM73.4643 43.1851H72.3544V44.25H70.1352V46.3791H73.4644V45.3142H72.3545V44.25H73.4643V43.1851ZM69.0253 45.3144H67.9154V46.3792H69.0253V45.3144Z" fill="white"/>
</g>
</svg>
