<svg width="100" height="100" viewBox="0 0 100 100" fill="none" xmlns="http://www.w3.org/2000/svg">
<mask id="mask0_2620_10221" style="mask-type:alpha" maskUnits="userSpaceOnUse" x="0" y="0" width="100" height="100">
<rect width="100" height="100" fill="#D9D9D9"/>
</mask>
<g mask="url(#mask0_2620_10221)">
<path opacity="0.1294" d="M49.5536 90.1783C70.0177 90.1783 86.6071 80.6354 86.6071 68.8636C86.6071 57.0918 70.0177 47.5488 49.5536 47.5488C29.0894 47.5488 12.5 57.0918 12.5 68.8636C12.5 80.6354 29.0894 90.1783 49.5536 90.1783Z" fill="#0061AF"/>
<path d="M16.6984 64.2916L15.3255 63.396C14.8989 63.1104 14.6329 62.6441 14.6237 62.1275L14.0414 36.1656C14.0005 34.2242 14.9809 32.4065 16.6302 31.3749L55.0146 7.44885C55.8146 6.94638 56.8129 6.8791 57.6683 7.26693L58.6591 7.71687" stroke="#0C63AD" stroke-width="1.5" stroke-miterlimit="10" stroke-linejoin="round"/>
<path d="M18.1722 66.1927L18.2328 67.975C18.2628 68.8578 18.7569 69.6582 19.5301 70.0821L40.3038 81.4664C42.6914 82.7777 45.5983 82.6872 47.9005 81.2415L85.192 57.7862C85.992 57.2837 86.4365 56.3765 86.3462 55.4373L86.1725 53.5171" fill="#0C63AD"/>
<path d="M18.1722 66.1927L18.2328 67.975C18.2628 68.8578 18.7569 69.6582 19.5301 70.0821L40.3038 81.4664C42.6914 82.7777 45.5983 82.6872 47.9005 81.2415L85.192 57.7862C85.992 57.2837 86.4365 56.3765 86.3462 55.4373L86.1725 53.5171" stroke="#0C63AD" stroke-width="1.5" stroke-miterlimit="10"/>
<path d="M15.8756 62.8939L15.1565 36.5865C15.1045 34.8122 16.0065 33.139 17.509 32.2041L56.8827 7.7024C57.977 7.02318 59.4039 7.79181 59.4311 9.0833L59.9904 35.5963C60.0254 37.3628 59.1312 39.0191 57.6287 39.954L18.4153 64.2668C17.3211 64.946 15.9111 64.1851 15.8756 62.8939Z" fill="#FDFDFD" stroke="#0C63AD" stroke-width="1.5" stroke-miterlimit="10"/>
<path d="M41.3414 79.8469L18.6061 66.9284C18.0534 66.6136 18.0434 65.8302 18.5824 65.495L58.3591 40.8296C60.123 39.7357 62.33 39.6607 64.1641 40.6323L84.8565 51.5857C86.5547 52.4869 86.6446 54.8852 85.02 55.9076L47.3402 79.7097C45.52 80.8638 43.2121 80.9173 41.3414 79.8469Z" fill="#FDFDFD" stroke="#0C63AD" stroke-width="1.5" stroke-miterlimit="10"/>
<path d="M54.0738 46.0113L56.2844 44.5687L58.7616 45.8186L56.4367 47.3318L54.0738 46.0113Z" fill="#0C63AD" stroke="#0C63AD" stroke-miterlimit="10" stroke-linejoin="round"/>
<path d="M57.7881 43.6754L59.9987 42.2328L62.4759 43.4827L60.151 44.9959L57.7881 43.6754Z" fill="#0C63AD" stroke="#0C63AD" stroke-miterlimit="10" stroke-linejoin="round"/>
<path d="M50.3184 48.3485L52.529 46.906L55.0062 48.1559L52.6813 49.669L50.3184 48.3485Z" fill="#0C63AD" stroke="#0C63AD" stroke-miterlimit="10" stroke-linejoin="round"/>
<path d="M46.5664 50.8107L48.777 49.3681L51.2543 50.618L48.9293 52.1312L46.5664 50.8107Z" fill="#0C63AD" stroke="#0C63AD" stroke-miterlimit="10" stroke-linejoin="round"/>
<path d="M42.688 53.2355L44.8986 51.7929L47.3759 53.0428L45.0509 54.556L42.688 53.2355Z" fill="#0C63AD" stroke="#0C63AD" stroke-miterlimit="10" stroke-linejoin="round"/>
<path d="M38.8501 55.6173L41.0607 54.1748L43.538 55.4247L41.213 56.9378L38.8501 55.6173Z" fill="#0C63AD" stroke="#0C63AD" stroke-miterlimit="10" stroke-linejoin="round"/>
<path d="M35.1748 57.8684L37.3854 56.4258L39.8627 57.6758L37.5377 59.1889L35.1748 57.8684Z" fill="#0C63AD" stroke="#0C63AD" stroke-miterlimit="10" stroke-linejoin="round"/>
<path d="M56.4456 49.0491L58.6476 47.5985L61.1251 48.8567L58.8002 50.3699L56.4456 49.0491Z" fill="#0C63AD" stroke="#0C63AD" stroke-miterlimit="10" stroke-linejoin="round"/>
<path d="M61.3321 50.5258L63.5343 49.0835L66.0119 50.3417L63.6866 51.8466L61.3321 50.5258Z" fill="#0C63AD" stroke="#0C63AD" stroke-miterlimit="10" stroke-linejoin="round"/>
<path d="M63.7793 53.6111L65.9816 52.1688L68.4591 53.427L66.1339 54.9319L63.7793 53.6111Z" fill="#0C63AD" stroke="#0C63AD" stroke-miterlimit="10" stroke-linejoin="round"/>
<path d="M65.0401 57.3287L69.0409 54.833L71.5302 56.1909L67.403 58.6491L65.0401 57.3287Z" fill="#0C63AD" stroke="#0C63AD" stroke-miterlimit="10" stroke-linejoin="round"/>
<path d="M70.2001 54.0932L75.7229 50.7453L78.2392 51.9188L72.563 55.4137L70.2001 54.0932Z" fill="#0C63AD" stroke="#0C63AD" stroke-miterlimit="10" stroke-linejoin="round"/>
<path d="M60.3023 55.8138L62.5046 54.3714L64.9821 55.6297L62.6568 57.1345L60.3023 55.8138Z" fill="#0C63AD" stroke="#0C63AD" stroke-miterlimit="10" stroke-linejoin="round"/>
<path d="M56.7515 58.0606L58.9538 56.6183L61.4313 57.8765L59.1061 59.3814L56.7515 58.0606Z" fill="#0C63AD" stroke="#0C63AD" stroke-miterlimit="10" stroke-linejoin="round"/>
<path d="M53.033 60.2632L55.235 58.8126L57.7125 60.0708L55.3876 61.584L53.033 60.2632Z" fill="#0C63AD" stroke="#0C63AD" stroke-miterlimit="10" stroke-linejoin="round"/>
<path d="M49.4832 62.5517L51.6852 61.1011L54.1627 62.3593L51.8378 63.8725L49.4832 62.5517Z" fill="#0C63AD" stroke="#0C63AD" stroke-miterlimit="10" stroke-linejoin="round"/>
<path d="M45.9329 64.7986L48.1349 63.348L50.6124 64.6062L48.2875 66.1194L45.9329 64.7986Z" fill="#0C63AD" stroke="#0C63AD" stroke-miterlimit="10" stroke-linejoin="round"/>
<path d="M42.4292 66.9606L44.6315 65.5183L47.1087 66.7682L44.7838 68.2814L42.4292 66.9606Z" fill="#0C63AD" stroke="#0C63AD" stroke-miterlimit="10" stroke-linejoin="round"/>
<path d="M45.1469 69.8783L49.1969 67.3559L51.837 68.4919L47.5098 71.1988L45.1469 69.8783Z" fill="#0C63AD" stroke="#0C63AD" stroke-miterlimit="10" stroke-linejoin="round"/>
<path d="M50.5122 66.3273L63.6815 58.0836L66.1799 59.4662L52.9529 67.7286L50.5122 66.3273Z" fill="#0C63AD" stroke="#0C63AD" stroke-miterlimit="10" stroke-linejoin="round"/>
<path d="M55.5022 67.9005L66.073 61.2209L70.0361 63.2542L59.5019 70.0326L55.5022 67.9005Z" fill="#0C63AD" stroke="#0C63AD" stroke-miterlimit="10" stroke-linejoin="round"/>
<path d="M57.8457 52.7204L60.0563 51.2778L62.5336 52.5277L60.2086 54.0409L57.8457 52.7204Z" fill="#0C63AD" stroke="#0C63AD" stroke-miterlimit="10" stroke-linejoin="round"/>
<path d="M54.3775 54.9229L56.5881 53.4803L59.0653 54.7302L56.7404 56.2434L54.3775 54.9229Z" fill="#0C63AD" stroke="#0C63AD" stroke-miterlimit="10" stroke-linejoin="round"/>
<path d="M50.7825 57.121L52.9929 55.6701L55.4704 56.9283L53.1454 58.4415L50.7825 57.121Z" fill="#0C63AD" stroke="#0C63AD" stroke-miterlimit="10" stroke-linejoin="round"/>
<path d="M47.2366 59.493L49.447 58.0421L51.9245 59.3003L49.5995 60.8135L47.2366 59.493Z" fill="#0C63AD" stroke="#0C63AD" stroke-miterlimit="10" stroke-linejoin="round"/>
<path d="M43.578 61.7436L45.78 60.293L48.2575 61.5512L45.9408 63.0641L43.578 61.7436Z" fill="#0C63AD" stroke="#0C63AD" stroke-miterlimit="10" stroke-linejoin="round"/>
<path d="M39.941 63.9101L42.1432 62.4678L44.6207 63.726L42.3038 65.2306L39.941 63.9101Z" fill="#0C63AD" stroke="#0C63AD" stroke-miterlimit="10" stroke-linejoin="round"/>
<path d="M36.5479 66.1348L38.7502 64.6925L41.236 65.9504L38.9108 67.4553L36.5479 66.1348Z" fill="#0C63AD" stroke="#0C63AD" stroke-miterlimit="10" stroke-linejoin="round"/>
<path d="M30.1886 70.145L34.9939 67.0299L37.4797 68.2879L32.7111 71.5017L30.1886 70.145Z" fill="#0C63AD" stroke="#0C63AD" stroke-miterlimit="10" stroke-linejoin="round"/>
<path d="M34.2725 72.2907L40.9078 67.8211L43.692 69.269L36.8034 73.6472L34.2725 72.2907Z" fill="#0C63AD" stroke="#0C63AD" stroke-miterlimit="10" stroke-linejoin="round"/>
<path d="M37.6887 74.4343L43.7594 70.5258L46.5355 71.9824L40.4876 76.0735L37.6887 74.4343Z" fill="#0C63AD" stroke="#0C63AD" stroke-miterlimit="10" stroke-linejoin="round"/>
<path d="M59.9946 46.7605L64.117 44.1606L66.5543 45.4619L62.3492 48.0813L59.9946 46.7605Z" fill="#0C63AD" stroke="#0C63AD" stroke-miterlimit="10" stroke-linejoin="round"/>
<path d="M52.7313 51.3851L54.9333 49.9344L57.4108 51.1927L55.0858 52.7058L52.7313 51.3851Z" fill="#0C63AD" stroke="#0C63AD" stroke-miterlimit="10" stroke-linejoin="round"/>
<path d="M49.1834 53.7151L51.3854 52.2645L53.8629 53.5227L51.538 55.0359L49.1834 53.7151Z" fill="#0C63AD" stroke="#0C63AD" stroke-miterlimit="10" stroke-linejoin="round"/>
<path d="M45.7217 55.9008L47.9323 54.4582L50.4098 55.7164L48.0846 57.2213L45.7217 55.9008Z" fill="#0C63AD" stroke="#0C63AD" stroke-miterlimit="10" stroke-linejoin="round"/>
<path d="M41.751 58.287L43.9533 56.8447L46.4308 58.1029L44.1056 59.6078L41.751 58.287Z" fill="#0C63AD" stroke="#0C63AD" stroke-miterlimit="10" stroke-linejoin="round"/>
<path d="M38.25 60.5323L40.4523 59.09L42.9298 60.3482L40.6046 61.853L38.25 60.5323Z" fill="#0C63AD" stroke="#0C63AD" stroke-miterlimit="10" stroke-linejoin="round"/>
<path d="M34.6412 62.5392L36.8434 61.0969L39.3207 62.3468L36.9957 63.86L34.6412 62.5392Z" fill="#0C63AD" stroke="#0C63AD" stroke-miterlimit="10" stroke-linejoin="round"/>
<path d="M26.1617 68.2055L33.1801 63.7229L35.6573 64.9728L28.68 69.4374L26.1617 68.2055Z" fill="#0C63AD" stroke="#0C63AD" stroke-miterlimit="10" stroke-linejoin="round"/>
<path d="M31.3794 60.2904L33.59 58.8478L36.0673 60.0977L33.7423 61.6109L31.3794 60.2904Z" fill="#0C63AD" stroke="#0C63AD" stroke-miterlimit="10" stroke-linejoin="round"/>
<path d="M27.5874 62.779L29.798 61.3364L32.2753 62.5863L29.9503 64.0995L27.5874 62.779Z" fill="#0C63AD" stroke="#0C63AD" stroke-miterlimit="10" stroke-linejoin="round"/>
<path d="M22.273 65.8946L24.4836 64.452L26.9611 65.7102L24.6359 67.2151L22.273 65.8946Z" fill="#0C63AD" stroke="#0C63AD" stroke-miterlimit="10" stroke-linejoin="round"/>
<path d="M69.7777 52.9735L66.7811 51.4077L68.2469 50.374L64.5104 48.3831L68.2265 46.339L74.9041 49.7391L69.7777 52.9735Z" fill="#0C63AD" stroke="#0C63AD" stroke-miterlimit="10" stroke-linejoin="round"/>
<path d="M49.6886 30.4602L27.6892 42.6662L28.965 54.5489L50.8347 41.1394L49.6886 30.4602Z" fill="#0E62AD"/>
<path d="M43.2756 26.3559C43.1835 25.5234 44.1315 25.3238 44.4263 25.3772L44.3602 23.9506C43.3854 23.9241 41.9619 25.012 42.1871 27.0935C42.3916 29.1671 44.147 27.9569 44.2499 28.9344C44.3561 29.9573 42.9077 30.1719 42.5649 30.0124L42.5552 31.4987C43.6853 31.7245 45.611 30.5121 45.3104 28.226C45.0638 25.9911 43.3744 27.279 43.2756 26.3559ZM40.9534 28.3055C40.7564 26.4683 39.256 27.1968 39.465 29.0605L40.9534 28.3055ZM39.6123 30.5C39.8715 32.0961 41.3655 31.0126 41.9763 30.3249L42.2852 31.6442C40.8645 33.4429 38.7123 33.9048 38.35 30.52C37.864 26.0131 41.659 23.6376 42.1578 28.3168C42.188 28.5882 42.199 28.87 42.2 29.1525L39.6123 30.5ZM44.6192 25.2732L45.1798 24.9899L45.4736 27.723C45.6308 29.1618 45.9533 30.1248 46.8797 29.6349C47.1404 29.4991 47.3843 29.2733 47.6136 28.9847L47.4503 27.4643C46.9231 27.9276 46.6571 28.1276 46.5233 26.8695L45.9257 21.2672L44.8417 21.7949L45.038 23.623L44.5644 23.8641L44.6192 25.2732ZM46.4461 24.3499L47.0746 24.0348L47.2154 23.2324L46.9227 22.6685L46.2842 22.9843L46.4461 24.3499ZM31.8964 37.4651L32.2316 29.978L33.2771 36.8813L34.4735 36.2459L33.1492 27.4836L31.2617 28.4018L30.9774 34.9558L29.3743 29.32L27.419 30.2701L28.0187 39.673L29.273 39.0064L28.7972 31.6734L30.6507 38.1129L31.8964 37.4651Z" fill="#0E62AD"/>
<path d="M36.7911 30.4594C36.5921 28.595 35.0624 29.3346 35.2841 31.2339L36.7911 30.4594ZM35.4327 32.6915C35.6933 34.3057 37.2166 33.2111 37.8367 32.5138L38.1568 33.8506C36.7075 35.6694 34.5268 36.1514 34.1611 32.7212C33.6711 28.16 37.5232 25.7442 38.0361 30.4771C38.067 30.7576 38.0779 31.0394 38.0789 31.3219L35.4327 32.6915Z" fill="#E40139"/>
<path d="M47.2698 20.5947L48.3086 22.5583L47.7727 25.3282L46.9806 25.7363L47.5159 22.9573L46.4664 20.9852L47.2698 20.5947Z" fill="#E40139"/>
<path d="M34.0221 42.7382L34.5384 47.5165L33.876 47.9159L33.4559 44.0245L32.1286 44.7871L32.5507 48.7057L31.8691 49.1155L31.3482 44.2738L34.0221 42.7382Z" fill="white"/>
<path d="M34.8018 44.8283C34.6459 43.4077 35.2013 41.9763 36.1064 41.4696C37.0015 40.9636 37.7621 41.615 37.9067 43.0181C38.0613 44.4206 37.5145 45.8332 36.6314 46.3658C35.7377 46.8899 34.9471 46.2406 34.8018 44.8283ZM37.243 43.3994C37.1462 42.5035 36.7053 42.1044 36.1959 42.4025C35.6859 42.6916 35.3674 43.533 35.4648 44.438C35.5623 45.343 36.0126 45.7324 36.5219 45.4343C37.0306 45.1271 37.3398 44.2953 37.243 43.3994Z" fill="white"/>
<path d="M41.7578 38.3146L42.2512 42.9212L38.6497 45.0652L38.1502 40.3769L38.7853 40.0158L39.188 43.8081L40.0524 43.295L39.6504 39.5118L40.2755 39.1513L40.6762 42.9164L41.5314 42.413L41.1314 38.657L41.7578 38.3146Z" fill="white"/>
<path d="M44.5343 37.6382L43.6878 38.1227L44.0837 41.8243L43.4786 42.1835L43.0813 38.4637L42.2347 38.9483L42.14 38.0796L44.4395 36.7694L44.5343 37.6382Z" fill="white"/>
<path d="M46.8253 39.1721L45.6343 39.8801L45.5064 40.9914L44.892 41.3603L45.567 36.1476L46.1536 35.8079L47.7827 39.6373L47.1682 40.0061L46.8253 39.1721ZM46.5537 38.4883L45.9612 36.9964L45.7364 38.9618L46.5537 38.4883Z" fill="white"/>
<circle cx="61.4913" cy="9.09803" r="9.56263" fill="#0062AD" stroke="white" stroke-width="1.5"/>
<path d="M57.3174 9.09782L60.4095 12.3448L65.6662 5.85132" stroke="white" stroke-width="2" stroke-miterlimit="10" stroke-linecap="round" stroke-linejoin="round"/>
</g>
</svg>
