<svg width="100" height="100" viewBox="0 0 100 100" fill="none" xmlns="http://www.w3.org/2000/svg">
<circle cx="50" cy="50" r="50" fill="#DEEBF5"/>
<path d="M66.0366 34.5099C66.7576 34.5099 67.3422 33.9254 67.3422 33.2043C67.3422 32.4832 66.7576 31.8987 66.0366 31.8987C65.3155 31.8987 64.731 32.4832 64.731 33.2043C64.731 33.9254 65.3155 34.5099 66.0366 34.5099Z" fill="#2361A9"/>
<path d="M60.8144 34.5099C61.5355 34.5099 62.12 33.9254 62.12 33.2043C62.12 32.4832 61.5355 31.8987 60.8144 31.8987C60.0933 31.8987 59.5088 32.4832 59.5088 33.2043C59.5088 33.9254 60.0933 34.5099 60.8144 34.5099Z" fill="#2361A9"/>
<path d="M55.5917 34.5099C56.3128 34.5099 56.8973 33.9254 56.8973 33.2043C56.8973 32.4832 56.3128 31.8987 55.5917 31.8987C54.8707 31.8987 54.2861 32.4832 54.2861 33.2043C54.2861 33.9254 54.8707 34.5099 55.5917 34.5099Z" fill="#2361A9"/>
<path d="M29.3056 64.6014H37.8687C37.7007 65.0669 37.8064 65.6033 38.1745 65.9698L41.7128 69.4923C42.1843 69.9617 42.9333 70.0016 43.452 69.5846L46.1119 67.4461L46.4882 70.8383C46.5616 71.4996 47.1205 72 47.7859 72H52.7787C53.4441 72 54.003 71.4996 54.0764 70.8383L54.4582 67.3957L57.1674 69.5539C57.6878 69.9685 58.4367 69.9255 58.9062 69.4539L62.4287 65.9155C62.7805 65.5622 62.8909 65.0529 62.7487 64.6016H71.259C71.9801 64.6016 72.5646 64.017 72.5646 63.296V38.7504V28.3056C72.5646 27.5846 71.9801 27 71.259 27H29.3056C28.5846 27 28 27.5846 28 28.3056V38.7504V63.2958C28 64.0168 28.5846 64.6014 29.3056 64.6014ZM57.8802 66.7831L55.2886 64.7185C54.8908 64.4016 54.3454 64.3445 53.8906 64.5722C53.5558 64.7398 53.208 64.8846 52.8569 65.0026C52.3752 65.1645 52.0312 65.5911 51.9752 66.0962L51.6099 69.3886H48.9547L48.5895 66.0964C48.5334 65.5912 48.1893 65.1645 47.7076 65.0027C47.3686 64.8888 47.0317 64.7495 46.7063 64.5883C46.2506 64.3629 45.7054 64.4224 45.3091 64.741L42.7268 66.8172L40.8451 64.944L42.9097 62.3523C43.2265 61.9547 43.2836 61.4092 43.0561 60.9545C42.8882 60.6191 42.7434 60.2712 42.6256 59.9205C42.4637 59.4389 42.037 59.0949 41.5319 59.0388L38.2397 58.6736V56.0184L41.5319 55.6531C42.037 55.5971 42.4637 55.2531 42.6255 54.7714C42.7395 54.4322 42.8789 54.0951 43.0399 53.7698C43.2654 53.3142 43.2058 52.769 42.8873 52.3728L40.8111 49.7905L42.6845 47.9086L45.2761 49.9732C45.6739 50.29 46.2192 50.3472 46.6739 50.1196C47.0092 49.9518 47.3571 49.807 47.7078 49.6891C48.1895 49.5272 48.5335 49.1006 48.5896 48.5955L48.9548 45.3034H51.61L51.9752 48.5955C52.0313 49.1006 52.3753 49.5272 52.8569 49.6891C53.1961 49.8032 53.5331 49.9425 53.8584 50.1036C54.3142 50.3292 54.8594 50.2696 55.2556 49.951L57.8379 47.8748L59.7197 49.748L57.6551 52.3397C57.3382 52.7373 57.2811 53.2828 57.5087 53.7375C57.6765 54.0728 57.8213 54.4207 57.9392 54.7714C58.1011 55.2531 58.5277 55.5971 59.0328 55.6531L62.325 56.0184V58.6736L59.0328 59.0388C58.5277 59.0949 58.101 59.4389 57.9392 59.9205C57.8251 60.2598 57.6858 60.5968 57.5248 60.9219C57.2993 61.3776 57.3589 61.9228 57.6774 62.3191L59.13 64.1259C59.1303 64.1262 59.1305 64.1265 59.1307 64.1268L59.7536 64.9015L57.8802 66.7831ZM30.6112 29.6112H69.9534V37.4448H30.6112V29.6112ZM30.6112 40.056H69.9534V61.9902H60.7635L60.3825 61.5163L63.7746 61.1399C64.4359 61.0665 64.9362 60.5076 64.9362 59.8423V54.8496C64.9362 54.1842 64.4358 53.6254 63.7746 53.552L60.332 53.1701L62.4901 50.4608C62.9047 49.9404 62.8616 49.1914 62.3901 48.7219L58.8518 45.1995C58.3803 44.73 57.6312 44.6902 57.1126 45.1072L54.4527 47.2457L54.0764 43.8534C54.003 43.1922 53.444 42.6918 52.7787 42.6918H47.7859C47.1206 42.6918 46.5616 43.1922 46.4882 43.8534L46.1064 47.2961L43.3973 45.1379C42.8769 44.7234 42.1279 44.7664 41.6584 45.2379L38.1359 48.7763C37.6665 49.2478 37.6267 49.9969 38.0437 50.5154L40.1822 53.1754L36.79 53.5517C36.1287 53.6251 35.6284 54.184 35.6284 54.8493V59.842C35.6284 60.5075 36.1288 61.0663 36.79 61.1396L40.2326 61.5216L39.8594 61.9902H30.6112V40.056Z" fill="#2361A9"/>
<path d="M44.3937 33.2043C44.3937 32.4832 43.8091 31.8987 43.0881 31.8987H34.5283C33.8072 31.8987 33.2227 32.4832 33.2227 33.2043C33.2227 33.9253 33.8072 34.5099 34.5283 34.5099H43.0881C43.8092 34.5099 44.3937 33.9254 44.3937 33.2043Z" fill="#2361A9"/>
<path d="M50.2823 51.9136C47.287 51.9136 44.8501 54.3504 44.8501 57.3458C44.8501 60.3411 47.287 62.7779 50.2823 62.7779C53.2776 62.7779 55.7145 60.3411 55.7145 57.3458C55.7145 54.3504 53.2776 51.9136 50.2823 51.9136ZM50.2823 60.1668C48.7268 60.1668 47.4613 58.9013 47.4613 57.3458C47.4613 55.7903 48.7268 54.5249 50.2823 54.5249C51.8378 54.5249 53.1033 55.7903 53.1033 57.3458C53.1033 58.9013 51.8378 60.1668 50.2823 60.1668Z" fill="#2361A9"/>
</svg>
