<svg width="90" height="90" viewBox="0 0 90 90" fill="none" xmlns="http://www.w3.org/2000/svg">
<mask id="mask0_2620_12697" style="mask-type:alpha" maskUnits="userSpaceOnUse" x="0" y="0" width="90" height="90">
<rect width="90" height="90" fill="#D9D9D9"/>
</mask>
<g mask="url(#mask0_2620_12697)">
<path opacity="0.1294" d="M39.7769 81.9642C58.1946 81.9642 73.1251 73.3755 73.1251 62.7809C73.1251 52.1863 58.1946 43.5977 39.7769 43.5977C21.3592 43.5977 6.42871 52.1863 6.42871 62.7809C6.42871 73.3755 21.3592 81.9642 39.7769 81.9642Z" fill="#0061AF"/>
<path d="M53.5585 4.22947L49.0031 1.10732C49.0031 1.10732 48.2364 0.462893 47.0587 1.05177C45.892 1.65175 26.9147 12.6959 26.9147 12.6959C26.9147 12.6959 23.3037 14.2514 23.3037 17.9736C23.3037 21.6957 23.3926 70.6723 23.3926 70.6723C23.3926 70.6723 23.3926 71.9723 24.4148 72.5722C25.3814 73.1278 29.1036 74.5611 29.9702 74.7166C30.648 74.8388 31.4257 74.2055 31.4257 74.2055C31.4257 74.2055 29.8813 75.1388 28.8591 74.1277C28.3258 73.5944 28.4703 72.2389 28.4703 71.4167L28.4814 20.3402C28.4814 20.3402 28.5369 17.018 31.4924 15.6403C34.4479 14.2626 51.9697 4.19613 51.9697 4.19613C51.9697 4.19613 52.7697 3.71837 53.5585 4.22947Z" fill="white" stroke="#0061B1" stroke-width="1.5" stroke-miterlimit="10"/>
<path d="M28.4817 73.061V20.5623C28.4817 18.5623 29.5594 16.729 31.3038 15.7513L51.97 4.19599C53.0144 3.60711 54.3033 4.37376 54.2922 5.56262L54.0477 58.6502C54.0366 60.0724 53.2811 61.3835 52.0589 62.0946L30.9594 74.4831C29.8594 75.1276 28.4817 74.3387 28.4817 73.061Z" fill="white" stroke="#0061B1" stroke-width="1.5" stroke-miterlimit="10"/>
<path d="M34.0581 14.207L35.3247 15.0626C35.8692 15.4292 36.5692 15.4626 37.1358 15.1403L45.5023 10.4071C46.1467 10.0405 46.6022 9.40716 46.7356 8.67384L47.0467 6.95166L34.0581 14.207Z" fill="#0061B1" stroke="#0061B1" stroke-width="0.5" stroke-miterlimit="10"/>
<path d="M37.6925 13.6181L37.6147 13.4736C37.548 13.3514 37.5925 13.207 37.7147 13.1403L44.3923 9.49593C44.5145 9.42927 44.659 9.47371 44.7256 9.59593L44.8034 9.74037C44.8701 9.86259 44.8256 10.007 44.7034 10.0737L38.0258 13.7181C37.9036 13.7847 37.7591 13.7403 37.6925 13.6181Z" fill="white"/>
<path d="M24.9033 27.0399V22.3734C24.9033 21.9178 25.2811 21.54 25.7366 21.54C26.1922 21.54 26.5699 21.9178 26.5699 22.3734V27.0399C26.5699 27.4954 26.1922 27.8732 25.7366 27.8732C25.27 27.8732 24.9033 27.4954 24.9033 27.0399Z" fill="#0061B1"/>
<path d="M24.9033 34.2063V29.5397C24.9033 29.0842 25.2811 28.7064 25.7366 28.7064C26.1922 28.7064 26.5699 29.0842 26.5699 29.5397V34.2063C26.5699 34.6618 26.1922 35.0396 25.7366 35.0396C25.27 35.0396 24.9033 34.6618 24.9033 34.2063Z" fill="#0061B1"/>
<rect x="41.1672" y="29.4766" width="35.4306" height="29.1254" rx="3.25" fill="white" stroke="#0061B1" stroke-width="1.5"/>
<path d="M47.0815 49.4291V38.7754C47.0815 37.7564 47.9153 36.9226 48.9344 36.9226H68.3889C69.4079 36.9226 70.2417 37.7564 70.2417 38.7754V49.4291C70.2417 50.4481 69.4079 51.2819 68.3889 51.2819H48.9344C47.9153 51.2819 47.0815 50.4481 47.0815 49.4291Z" fill="#0061B1" stroke="white" stroke-width="1.5" stroke-miterlimit="10"/>
<path d="M48.4805 37.0061L58.4857 45.1585C58.7821 45.3993 59.199 45.3993 59.4954 45.1492L68.9448 37.2562" fill="#0061B1"/>
<path d="M48.4805 37.0061L58.4857 45.1585C58.7821 45.3993 59.199 45.3993 59.4954 45.1492L68.9448 37.2562" stroke="white" stroke-width="1.5" stroke-miterlimit="10"/>
<path d="M76.4467 38.4842C80.8407 38.4842 84.4027 34.9222 84.4027 30.5282C84.4027 26.1343 80.8407 22.5723 76.4467 22.5723C72.0527 22.5723 68.4907 26.1343 68.4907 30.5282C68.4907 34.9222 72.0527 38.4842 76.4467 38.4842Z" fill="#0061B1" stroke="white" stroke-width="1.5"/>
<path d="M76.5556 34.131V28.8181L75.4121 29.6324L74.6462 28.3703L76.739 26.925H78.2492V34.131H76.5556Z" fill="white"/>
</g>
</svg>
