<svg width="100" height="100" viewBox="0 0 100 100" fill="none" xmlns="http://www.w3.org/2000/svg">
<circle cx="50" cy="50" r="50" fill="#DEEBF5"/>
<path fill-rule="evenodd" clip-rule="evenodd" d="M70.6394 66.6897C71.3666 66.6897 71.9561 67.2792 71.9561 68.0063V70.6396C71.9561 71.3668 71.3666 71.9563 70.6394 71.9563H68.0061C67.2789 71.9563 66.6895 71.3668 66.6895 70.6396C66.6895 69.9125 67.2789 69.323 68.0061 69.323H69.3228V68.0063C69.3228 67.2792 69.9122 66.6897 70.6394 66.6897Z" fill="#2361A9"/>
<path d="M62.7191 71.9559H57.4316C56.7045 71.9559 56.115 71.3664 56.115 70.6393C56.115 69.9121 56.7045 69.3226 57.4316 69.3226H62.7191C63.4463 69.3226 64.0358 69.9121 64.0358 70.6393C64.0358 71.3664 63.4463 71.9559 62.7191 71.9559ZM52.1441 71.9559H49.4861C48.7589 71.9559 48.1694 71.3664 48.1694 70.6393C48.1694 69.9121 48.7589 69.3226 49.4861 69.3226H52.1441C52.8713 69.3226 53.4608 69.9121 53.4608 70.6393C53.4608 71.3664 52.8714 71.9559 52.1441 71.9559Z" fill="#2361A9"/>
<path fill-rule="evenodd" clip-rule="evenodd" d="M49.486 69.3665C48.7831 69.3665 48.2133 69.9363 48.2133 70.6392C48.2133 71.3421 48.7831 71.912 49.486 71.912H52.1441C52.8471 71.912 53.4168 71.3421 53.4168 70.6392C53.4168 69.9363 52.847 69.3665 52.1441 69.3665H49.486ZM48.1255 70.6392C48.1255 69.8878 48.7346 69.2787 49.486 69.2787H52.1441C52.8955 69.2787 53.5046 69.8878 53.5046 70.6392C53.5046 71.3906 52.8955 71.9998 52.1441 71.9998H49.486C48.7346 71.9998 48.1255 71.3906 48.1255 70.6392ZM57.4316 69.3665C56.7287 69.3665 56.1588 69.9363 56.1588 70.6392C56.1588 71.3421 56.7287 71.912 57.4316 71.912H62.7191C63.422 71.912 63.9918 71.3421 63.9918 70.6392C63.9918 69.9363 63.422 69.3665 62.7191 69.3665H57.4316ZM56.071 70.6392C56.071 69.8878 56.6802 69.2787 57.4316 69.2787H62.7191C63.4704 69.2787 64.0796 69.8878 64.0796 70.6392C64.0796 71.3906 63.4704 71.9998 62.7191 71.9998H57.4316C56.6802 71.9998 56.071 71.3906 56.071 70.6392Z" fill="#2361A9"/>
<path fill-rule="evenodd" clip-rule="evenodd" d="M28.3606 66.6898C29.0878 66.6898 29.6772 67.2792 29.6772 68.0064V69.3231H30.9939C31.7211 69.3231 32.3105 69.9125 32.3105 70.6397C32.3105 71.3669 31.7211 71.9564 30.9939 71.9564H28.3606C27.6334 71.9564 27.0439 71.3669 27.0439 70.6397V68.0064C27.0439 67.2792 27.6334 66.6898 28.3606 66.6898Z" fill="#2361A9"/>
<path d="M28.3606 53.4602C27.6335 53.4602 27.0439 52.8706 27.0439 52.1435V46.856C27.0439 46.1289 27.6335 45.5394 28.3606 45.5394C29.0877 45.5394 29.6772 46.1289 29.6772 46.856V52.1435C29.6772 52.8706 29.0877 53.4602 28.3606 53.4602ZM28.3606 42.8853C27.6335 42.8853 27.0439 42.2958 27.0439 41.5686V36.2811C27.0439 35.554 27.6335 34.9645 28.3606 34.9645C29.0877 34.9645 29.6772 35.554 29.6772 36.2811V41.5686C29.6772 42.2958 29.0877 42.8853 28.3606 42.8853Z" fill="#2361A9"/>
<path fill-rule="evenodd" clip-rule="evenodd" d="M28.3605 35.0084C27.6576 35.0084 27.0878 35.5782 27.0878 36.2811V41.5686C27.0878 42.2715 27.6576 42.8414 28.3605 42.8414C29.0634 42.8414 29.6333 42.2715 29.6333 41.5686V36.2811C29.6333 35.5782 29.0634 35.0084 28.3605 35.0084ZM27 36.2811C27 35.5298 27.6092 34.9206 28.3605 34.9206C29.1119 34.9206 29.7211 35.5298 29.7211 36.2811V41.5686C29.7211 42.32 29.1119 42.9292 28.3605 42.9292C27.6092 42.9292 27 42.32 27 41.5686V36.2811ZM28.3605 45.5833C27.6576 45.5833 27.0878 46.1531 27.0878 46.856V52.1435C27.0878 52.8464 27.6576 53.4163 28.3605 53.4163C29.0634 53.4163 29.6333 52.8464 29.6333 52.1435V46.856C29.6333 46.1531 29.0634 45.5833 28.3605 45.5833ZM27 46.856C27 46.1046 27.6092 45.4955 28.3605 45.4955C29.1119 45.4955 29.7211 46.1046 29.7211 46.856V52.1435C29.7211 52.8949 29.1119 53.504 28.3605 53.504C27.6092 53.504 27 52.8949 27 52.1435V46.856Z" fill="#2361A9"/>
<path fill-rule="evenodd" clip-rule="evenodd" d="M27.0439 28.3606C27.0439 27.6334 27.6334 27.0439 28.3606 27.0439H30.9939C31.7211 27.0439 32.3105 27.6334 32.3105 28.3606C32.3105 29.0878 31.7211 29.6772 30.9939 29.6772H29.6772V30.9939C29.6772 31.7211 29.0878 32.3105 28.3606 32.3105C27.6334 32.3105 27.0439 31.7211 27.0439 30.9939V28.3606Z" fill="#2361A9"/>
<path d="M62.7193 29.6772H57.4318C56.7047 29.6772 56.1152 29.0877 56.1152 28.3606C56.1152 27.6335 56.7047 27.0439 57.4318 27.0439H62.7193C63.4465 27.0439 64.036 27.6335 64.036 28.3606C64.036 29.0877 63.4465 29.6772 62.7193 29.6772ZM52.1444 29.6772H46.8569C46.1297 29.6772 45.5402 29.0877 45.5402 28.3606C45.5402 27.6335 46.1297 27.0439 46.8569 27.0439H52.1444C52.8715 27.0439 53.461 27.6335 53.461 28.3606C53.461 29.0877 52.8716 29.6772 52.1444 29.6772ZM41.5695 29.6772H36.282C35.5548 29.6772 34.9653 29.0877 34.9653 28.3606C34.9653 27.6335 35.5548 27.0439 36.282 27.0439H41.5695C42.2966 27.0439 42.8861 27.6335 42.8861 28.3606C42.8861 29.0877 42.2966 29.6772 41.5695 29.6772Z" fill="#2361A9"/>
<path fill-rule="evenodd" clip-rule="evenodd" d="M36.2819 27.0878C35.579 27.0878 35.0092 27.6576 35.0092 28.3605C35.0092 29.0634 35.579 29.6333 36.2819 29.6333H41.5694C42.2723 29.6333 42.8422 29.0634 42.8422 28.3605C42.8422 27.6576 42.2723 27.0878 41.5694 27.0878H36.2819ZM34.9214 28.3605C34.9214 27.6092 35.5305 27 36.2819 27H41.5694C42.3208 27 42.93 27.6092 42.93 28.3605C42.93 29.1119 42.3208 29.7211 41.5694 29.7211H36.2819C35.5305 29.7211 34.9214 29.1119 34.9214 28.3605ZM46.8568 27.0878C46.1539 27.0878 45.5841 27.6576 45.5841 28.3605C45.5841 29.0634 46.1539 29.6333 46.8568 29.6333H52.1443C52.8473 29.6333 53.4171 29.0634 53.4171 28.3605C53.4171 27.6576 52.8472 27.0878 52.1443 27.0878H46.8568ZM45.4963 28.3605C45.4963 27.6092 46.1054 27 46.8568 27H52.1443C52.8957 27 53.5048 27.6092 53.5048 28.3605C53.5048 29.1119 52.8958 29.7211 52.1443 29.7211H46.8568C46.1054 29.7211 45.4963 29.1119 45.4963 28.3605ZM57.4318 27.0878C56.7289 27.0878 56.159 27.6576 56.159 28.3605C56.159 29.0634 56.7289 29.6333 57.4318 29.6333H62.7193C63.4222 29.6333 63.992 29.0634 63.992 28.3605C63.992 27.6576 63.4222 27.0878 62.7193 27.0878H57.4318ZM56.0713 28.3605C56.0713 27.6092 56.6804 27 57.4318 27H62.7193C63.4707 27 64.0798 27.6092 64.0798 28.3605C64.0798 29.1119 63.4707 29.7211 62.7193 29.7211H57.4318C56.6804 29.7211 56.0713 29.1119 56.0713 28.3605Z" fill="#2361A9"/>
<path fill-rule="evenodd" clip-rule="evenodd" d="M66.6895 28.3606C66.6895 27.6334 67.2789 27.0439 68.0061 27.0439H70.6394C71.3666 27.0439 71.9561 27.6334 71.9561 28.3606V30.9939C71.9561 31.7211 71.3666 32.3105 70.6394 32.3105C69.9122 32.3105 69.3228 31.7211 69.3228 30.9939V29.6772H68.0061C67.2789 29.6772 66.6895 29.0878 66.6895 28.3606Z" fill="#2361A9"/>
<path d="M70.6394 64.0351C69.9123 64.0351 69.3228 63.4456 69.3228 62.7185V57.431C69.3228 56.7038 69.9123 56.1143 70.6394 56.1143C71.3665 56.1143 71.9561 56.7038 71.9561 57.431V62.7185C71.9561 63.4456 71.3665 64.0351 70.6394 64.0351ZM70.6394 53.4602C69.9123 53.4602 69.3228 52.8706 69.3228 52.1435V46.856C69.3228 46.1289 69.9123 45.5394 70.6394 45.5394C71.3665 45.5394 71.9561 46.1289 71.9561 46.856V52.1435C71.9561 52.8706 71.3665 53.4602 70.6394 53.4602ZM70.6394 42.8853C69.9123 42.8853 69.3228 42.2958 69.3228 41.5686V36.2811C69.3228 35.554 69.9123 34.9645 70.6394 34.9645C71.3665 34.9645 71.9561 35.554 71.9561 36.2811V41.5686C71.9561 42.2958 71.3665 42.8853 70.6394 42.8853Z" fill="#2361A9"/>
<path fill-rule="evenodd" clip-rule="evenodd" d="M70.6393 35.0084C69.9364 35.0084 69.3666 35.5782 69.3666 36.2811V41.5686C69.3666 42.2715 69.9364 42.8414 70.6393 42.8414C71.3422 42.8414 71.9121 42.2715 71.9121 41.5686V36.2811C71.9121 35.5782 71.3422 35.0084 70.6393 35.0084ZM69.2788 36.2811C69.2788 35.5298 69.888 34.9206 70.6393 34.9206C71.3907 34.9206 71.9999 35.5298 71.9999 36.2811V41.5686C71.9999 42.32 71.3907 42.9292 70.6393 42.9292C69.888 42.9292 69.2788 42.32 69.2788 41.5686V36.2811ZM70.6393 45.5833C69.9364 45.5833 69.3666 46.1531 69.3666 46.856V52.1435C69.3666 52.8464 69.9364 53.4163 70.6393 53.4163C71.3422 53.4163 71.9121 52.8464 71.9121 52.1435V46.856C71.9121 46.1531 71.3422 45.5833 70.6393 45.5833ZM69.2788 46.856C69.2788 46.1046 69.888 45.4955 70.6393 45.4955C71.3907 45.4955 71.9999 46.1046 71.9999 46.856V52.1435C71.9999 52.8949 71.3907 53.504 70.6393 53.504C69.888 53.504 69.2788 52.8949 69.2788 52.1435V46.856ZM70.6393 56.1582C69.9364 56.1582 69.3666 56.7281 69.3666 57.431V62.7185C69.3666 63.4214 69.9364 63.9912 70.6393 63.9912C71.3422 63.9912 71.9121 63.4214 71.9121 62.7185V57.431C71.9121 56.7281 71.3422 56.1582 70.6393 56.1582ZM69.2788 57.431C69.2788 56.6796 69.888 56.0705 70.6393 56.0705C71.3907 56.0705 71.9999 56.6796 71.9999 57.431V62.7185C71.9999 63.4699 71.3907 64.079 70.6393 64.079C69.888 64.079 69.2788 63.4699 69.2788 62.7185V57.431Z" fill="#2361A9"/>
<path fill-rule="evenodd" clip-rule="evenodd" d="M65.0216 33.9791C65.5358 34.4933 65.5358 35.3269 65.0216 35.8411L50.4171 50.4456C49.9029 50.9598 49.0693 50.9598 48.5551 50.4456C48.0409 49.9315 48.0409 49.0978 48.5551 48.5836L63.1596 33.9791C63.6738 33.4649 64.5075 33.4649 65.0216 33.9791Z" fill="#2361A9"/>
<path fill-rule="evenodd" clip-rule="evenodd" d="M58.1685 34.8975C58.1685 34.1703 58.7579 33.5808 59.4851 33.5808H64.1029C64.8301 33.5808 65.4196 34.1703 65.4196 34.8975V39.5153C65.4196 40.2425 64.8301 40.8319 64.1029 40.8319C63.3758 40.8319 62.7863 40.2425 62.7863 39.5153V36.2141H59.4851C58.7579 36.2141 58.1685 35.6246 58.1685 34.8975Z" fill="#2361A9"/>
<path fill-rule="evenodd" clip-rule="evenodd" d="M27.0439 49.5148C27.0439 48.7876 27.6334 48.1981 28.3606 48.1981H49.4853C50.2124 48.1981 50.8019 48.7876 50.8019 49.5148V70.6394C50.8019 71.3666 50.2124 71.9561 49.4853 71.9561H28.3606C27.6334 71.9561 27.0439 71.3666 27.0439 70.6394V49.5148ZM29.6772 50.8314V69.3228H48.1686V50.8314H29.6772Z" fill="#2361A9"/>
</svg>
