<svg width="100" height="100" viewBox="0 0 100 100" fill="none" xmlns="http://www.w3.org/2000/svg">
<circle cx="50" cy="50" r="50" fill="#DEEBF5"/>
<path fill-rule="evenodd" clip-rule="evenodd" d="M31.3945 28.3516C32.1226 28.3516 32.7129 28.9418 32.7129 29.6699V60.8711C32.7129 61.5992 32.1226 62.1895 31.3945 62.1895C30.6664 62.1895 30.0762 61.5992 30.0762 60.8711V29.6699C30.0762 28.9418 30.6664 28.3516 31.3945 28.3516Z" fill="#2361A9"/>
<path fill-rule="evenodd" clip-rule="evenodd" d="M67.6055 28.3516C68.3336 28.3516 68.9238 28.9418 68.9238 29.6699V60.8711C68.9238 61.5992 68.3336 62.1895 67.6055 62.1895C66.8774 62.1895 66.2871 61.5992 66.2871 60.8711V29.6699C66.2871 28.9418 66.8774 28.3516 67.6055 28.3516Z" fill="#2361A9"/>
<path fill-rule="evenodd" clip-rule="evenodd" d="M27 29.3184C27 28.5902 27.5902 28 28.3184 28H70.6816C71.4098 28 72 28.5902 72 29.3184C72 30.0465 71.4098 30.6367 70.6816 30.6367H28.3184C27.5902 30.6367 27 30.0465 27 29.3184Z" fill="#2361A9"/>
<path fill-rule="evenodd" clip-rule="evenodd" d="M27 61.2227C27 60.4945 27.5902 59.9043 28.3184 59.9043H70.6816C71.4098 59.9043 72 60.4945 72 61.2227C72 61.9508 71.4098 62.541 70.6816 62.541H28.3184C27.5902 62.541 27 61.9508 27 61.2227Z" fill="#2361A9"/>
<path fill-rule="evenodd" clip-rule="evenodd" d="M49.5 67.7266C48.7719 67.7266 48.1816 68.3168 48.1816 69.0449C48.1816 69.773 48.7719 70.3633 49.5 70.3633C50.2281 70.3633 50.8184 69.773 50.8184 69.0449C50.8184 68.3168 50.2281 67.7266 49.5 67.7266ZM45.5449 69.0449C45.5449 66.8606 47.3157 65.0898 49.5 65.0898C51.6843 65.0898 53.4551 66.8606 53.4551 69.0449C53.4551 71.2293 51.6843 73 49.5 73C47.3157 73 45.5449 71.2293 45.5449 69.0449Z" fill="#2361A9"/>
<path fill-rule="evenodd" clip-rule="evenodd" d="M49.5 59.9922C50.2281 59.9922 50.8184 60.5824 50.8184 61.3105V66.3203C50.8184 67.0484 50.2281 67.6387 49.5 67.6387C48.7719 67.6387 48.1816 67.0484 48.1816 66.3203V61.3105C48.1816 60.5824 48.7719 59.9922 49.5 59.9922Z" fill="#2361A9"/>
<path fill-rule="evenodd" clip-rule="evenodd" d="M48.9428 33.9442C49.296 33.7795 49.704 33.7795 50.0572 33.9442L62.3942 39.6974C62.8585 39.9139 63.1553 40.3798 63.1553 40.8922C63.1553 41.4045 62.8585 41.8705 62.3942 42.087L50.0572 47.8402C49.704 48.0049 49.296 48.0049 48.9428 47.8402L36.6059 42.087C36.1416 41.8705 35.8447 41.4045 35.8447 40.8922C35.8447 40.3798 36.1416 39.9139 36.6059 39.6974L48.9428 33.9442ZM40.2824 40.8922L49.5 45.1907L58.7176 40.8922L49.5 36.5937L40.2824 40.8922Z" fill="#2361A9"/>
<path fill-rule="evenodd" clip-rule="evenodd" d="M42.1582 42.1801C42.8863 42.1801 43.4766 42.7703 43.4766 43.4984V51.4163C47.4002 52.6289 51.5995 52.6289 55.5232 51.4163V43.4984C55.5232 42.7703 56.1135 42.1801 56.8416 42.1801C57.5697 42.1801 58.1599 42.7703 58.1599 43.4984V52.3657C58.1599 52.922 57.8107 53.4184 57.2872 53.6065C52.253 55.4145 46.7467 55.4145 41.7126 53.6065C41.189 53.4184 40.8398 52.922 40.8398 52.3657V43.4984C40.8398 42.7703 41.4301 42.1801 42.1582 42.1801Z" fill="#2361A9"/>
<path fill-rule="evenodd" clip-rule="evenodd" d="M61.8369 39.5739C62.565 39.5739 63.1553 40.1641 63.1553 40.8922V46.7329C63.1553 47.461 62.565 48.0513 61.8369 48.0513C61.1088 48.0513 60.5186 47.461 60.5186 46.7329V40.8922C60.5186 40.1641 61.1088 39.5739 61.8369 39.5739Z" fill="#2361A9"/>
</svg>
