<svg width="112" height="112" viewBox="0 0 112 112" fill="none" xmlns="http://www.w3.org/2000/svg">
<mask id="mask0_2515_1242" style="mask-type:alpha" maskUnits="userSpaceOnUse" x="0" y="0" width="112" height="112">
<rect width="112" height="112" fill="#D9D9D9"/>
</mask>
<g mask="url(#mask0_2515_1242)">
<path d="M56.7885 102C79.3154 102 97.577 91.7082 97.577 79.0126C97.577 66.317 79.3154 56.0251 56.7885 56.0251C34.2616 56.0251 16 66.317 16 79.0126C16 91.7082 34.2616 102 56.7885 102Z" fill="#DEEBF5"/>
<path d="M67.4785 70.8299V37.154C67.4785 35.7765 68.3087 34.5448 69.5948 34.01L97.9036 22.358C97.9524 22.3418 98.0013 22.3742 98.0013 22.4228V58.7727V58.7889L69.0576 71.8509C68.325 72.1912 67.4785 71.6402 67.4785 70.8299Z" fill="white" stroke="#0062AD" stroke-width="1.5" stroke-miterlimit="10"/>
<path d="M64.5404 33.2265L36.0369 21.6241C35.9877 21.6081 35.9877 21.5437 36.0369 21.5115L66.7191 9.12069C67.1287 8.95977 67.571 8.95977 67.9641 9.12069L97.7782 21.3184C98.0731 21.431 98.0731 21.8494 97.7782 21.9621L70.1592 33.2265C68.3573 33.9989 66.326 33.9828 64.5404 33.2265Z" fill="white" stroke="#0062AD" stroke-width="1.5" stroke-miterlimit="10"/>
<path d="M36.5984 21.4314C36.3073 21.3158 36 21.5304 36 21.8441L36.566 57.9325C36.566 58.8735 37.1321 59.7154 37.9893 60.0621L67.4238 71.9485C67.4561 71.965 67.4885 71.932 67.4723 71.9155L67.3914 35.9592C67.3914 35.1833 66.9386 34.5064 66.2432 34.1927L36.5984 21.4314Z" fill="white" stroke="#0062AD" stroke-width="1.5" stroke-miterlimit="10"/>
<path d="M81.7852 28.8232V43.3382L90.3697 39.4798V25.2153L81.7852 28.8232Z" fill="#0062AD" stroke="#0062AD" stroke-miterlimit="10"/>
<path d="M81.4032 29.0306L74.1523 25.3685L83.0533 21.3999L90.3676 25.096L81.4032 29.0306Z" fill="#0062AD" stroke="#0062AD" stroke-miterlimit="10"/>
<path d="M51.7376 28.0767L82.7373 14.9796L68.5212 9.25664C67.7833 8.92 66.9471 8.92 66.2092 9.22458L37.1376 21.6324C36.8916 21.7446 36.8916 22.0973 37.1376 22.1934L51.7376 28.0767Z" fill="#0062AD" stroke="#0062AD" stroke-miterlimit="10"/>
<path d="M10.383 77.9183L8.67885 60.1196L22.1447 59.0058C27.6783 58.6682 33.6838 61.6704 36.5753 66.4083L47.5403 72.6069C50.7829 73.9937 52.5609 77.6361 48.5462 79.6118L48.6457 79.6019L68.2885 77.5441C70.427 77.3221 72.3402 78.881 72.5532 81.0304C72.7653 83.17 71.2055 85.0731 69.0759 85.2842L44.8984 87.7212C42.8086 87.9284 40.7064 87.6042 38.7757 86.7806L16.5309 77.2887L10.383 77.9183Z" fill="white"/>
<path d="M10.4336 77.9133L16.6034 77.3017L39.266 86.9531C40.756 87.5893 42.3688 87.8414 43.9808 87.6816L69.3186 85.2904C71.4491 85.0892 73.0209 83.205 72.8287 81.0635C72.6345 78.9021 70.7085 77.3144 68.5401 77.5394L48.1978 79.6363" stroke="#0062AD" stroke-width="1.5" stroke-miterlimit="10"/>
<path d="M8.67969 60.1196L21.1763 59.0617C27.2753 58.5475 33.1795 61.3387 36.6538 66.3806L49.6294 73.4048C51.1827 74.5773 51.5022 76.7866 50.3416 78.3587C49.1721 79.9418 46.9439 80.2732 45.3608 79.1037L30.8636 71.1249" stroke="#0062AD" stroke-width="1.5" stroke-miterlimit="10"/>
</g>
</svg>
