<svg width="100" height="100" viewBox="0 0 100 100" fill="none" xmlns="http://www.w3.org/2000/svg">
<circle cx="50" cy="50" r="50" fill="#DEEBF5"/>
<path fill-rule="evenodd" clip-rule="evenodd" d="M37.0271 32.6347C35.1869 32.6315 33.6347 34.1719 33.6347 36.1469V65.1923C33.6347 65.9198 33.0449 66.5096 32.3173 66.5096C31.5898 66.5096 31 65.9198 31 65.1923V36.1469C31 32.7812 33.6692 29.9945 37.0311 30C37.0313 30 37.0314 30 37.0316 30L63.6311 30.0356C64.3587 30.0365 64.9477 30.6271 64.9467 31.3547C64.9457 32.0822 64.3551 32.6712 63.6276 32.6702L37.0271 32.6347Z" fill="#0062AD"/>
<path fill-rule="evenodd" clip-rule="evenodd" d="M58.6897 35.0721C58.6897 32.3235 60.8688 30.0357 63.6295 30.0357C66.3902 30.0357 68.5693 32.3235 68.5693 35.0721V73.6824C68.5693 74.41 67.9796 74.9998 67.252 74.9998C66.5245 74.9998 65.9347 74.41 65.9347 73.6824V35.0721C65.9347 33.7128 64.8702 32.6704 63.6295 32.6704C62.3889 32.6704 61.3244 33.7128 61.3244 35.0721V65.1923C61.3244 65.667 61.0689 66.105 60.6558 66.3388C60.2426 66.5726 59.7356 66.566 59.3287 66.3216L56.5387 64.6456L53.714 66.3247C53.2954 66.5735 52.7737 66.5711 52.3574 66.3184L49.6012 64.6456L46.7423 66.3277C46.3317 66.5692 45.8228 66.5704 45.4112 66.3306L42.5219 64.6478L39.8378 66.3119C39.4212 66.5702 38.8957 66.5758 38.4737 66.3266L35.6421 64.6541L33.0199 66.3068C32.4044 66.6947 31.591 66.5102 31.2031 65.8947C30.8151 65.2792 30.9996 64.4658 31.6151 64.0779L34.9175 61.9965C35.3351 61.7333 35.8648 61.7256 36.2898 61.9767L39.1271 63.6526L41.8065 61.9913C42.2206 61.7346 42.7426 61.7274 43.1637 61.9726L46.0709 63.6659L48.9437 61.9755C49.3616 61.7297 49.8807 61.7332 50.2952 61.9848L53.048 63.6556L55.8691 61.9786C56.2859 61.7308 56.805 61.732 57.2206 61.9817L58.6897 62.8642V35.0721Z" fill="#0062AD"/>
<path fill-rule="evenodd" clip-rule="evenodd" d="M35.124 62.0996C35.8515 62.0996 36.4413 62.6894 36.4413 63.4169V71.5128L38.5202 70.4321C38.8986 70.2354 39.3488 70.2341 39.7283 70.4285L43.1767 72.1947L46.4392 70.4407C46.8181 70.2369 47.2728 70.2311 47.6568 70.4251L51.1811 72.205L54.6649 70.4275C55.0462 70.233 55.4983 70.2359 55.8772 70.4352L59.2246 72.197L62.6526 70.43C63.033 70.2339 63.485 70.2349 63.8647 70.4326L67.8609 72.514C68.5062 72.8501 68.7568 73.6456 68.4208 74.2909C68.0847 74.9361 67.2891 75.1868 66.6439 74.8507L63.253 73.0846L59.8218 74.8533C59.4396 75.0503 58.9852 75.0484 58.6047 74.8481L55.2542 73.0847L51.7828 74.8558C51.4084 75.0468 50.9654 75.0477 50.5902 74.8582L47.082 73.0864L43.8153 74.8426C43.434 75.0476 42.9763 75.0522 42.591 74.8548L39.1323 73.0833L35.7316 74.8512C35.3232 75.0635 34.8337 75.0472 34.4403 74.8084C34.0469 74.5695 33.8066 74.1426 33.8066 73.6824V63.4169C33.8066 62.6894 34.3964 62.0996 35.124 62.0996Z" fill="#0062AD"/>
<path fill-rule="evenodd" clip-rule="evenodd" d="M51.2608 39.4436C51.8662 39.847 52.0301 40.6648 51.6267 41.2703L42.5056 54.9614C42.1022 55.5668 41.2844 55.7307 40.6789 55.3273C40.0734 54.9239 39.9096 54.1061 40.313 53.5006L49.4341 39.8096C49.8375 39.2041 50.6553 39.0403 51.2608 39.4436Z" fill="#0062AD"/>
<path fill-rule="evenodd" clip-rule="evenodd" d="M41.348 41.7878C40.8562 41.7878 40.4574 42.1865 40.4574 42.6784C40.4574 43.1703 40.8562 43.569 41.348 43.569C41.8399 43.569 42.2386 43.1703 42.2386 42.6784C42.2386 42.1865 41.8399 41.7878 41.348 41.7878ZM37.8228 42.6784C37.8228 40.7315 39.4011 39.1531 41.348 39.1531C43.295 39.1531 44.8733 40.7315 44.8733 42.6784C44.8733 44.6254 43.295 46.2037 41.348 46.2037C39.4011 46.2037 37.8228 44.6254 37.8228 42.6784Z" fill="#0062AD"/>
<path fill-rule="evenodd" clip-rule="evenodd" d="M50.7665 51.3499C50.2746 51.3499 49.8759 51.7486 49.8759 52.2405C49.8759 52.7323 50.2746 53.1311 50.7665 53.1311C51.2583 53.1311 51.6571 52.7323 51.6571 52.2405C51.6571 51.7486 51.2583 51.3499 50.7665 51.3499ZM47.2412 52.2405C47.2412 50.2935 48.8195 48.7152 50.7665 48.7152C52.7134 48.7152 54.2917 50.2935 54.2917 52.2405C54.2917 54.1874 52.7134 55.7657 50.7665 55.7657C48.8195 55.7657 47.2412 54.1874 47.2412 52.2405Z" fill="#0062AD"/>
</svg>
