<svg width="100" height="100" viewBox="0 0 100 100" fill="none" xmlns="http://www.w3.org/2000/svg">
<circle cx="50" cy="50" r="50" fill="white"/>
<path fill-rule="evenodd" clip-rule="evenodd" d="M31.3009 29.0697C31.4201 28.4488 31.9633 28 32.5956 28H62.5357C63.2638 28 63.854 28.5902 63.854 29.3184V49.1446C63.854 49.8727 63.2638 50.4629 62.5357 50.4629H43.3409L40.5279 71.8535C40.4417 72.5095 39.8825 73 39.2208 73H32.9458C29.674 73 27 70.3697 27 67.0984C27 66.2721 27.1748 65.4553 27.5128 64.7007C27.5128 64.7007 27.5128 64.7007 27.5128 64.7007L32.1985 54.2402C33.3672 51.6312 31.8852 48.5951 29.154 47.9639L29.1532 47.9637C29.1072 47.9531 29.0595 47.9428 29.0099 47.9329C28.3 47.7907 27.8376 47.1026 27.9741 46.3915L31.3009 29.0697ZM33.6848 30.6367L30.788 45.7201C34.497 47.2007 36.2796 51.5792 34.6049 55.3181L33.4074 54.7817L34.6049 55.3181L29.9191 65.7786L29.9191 65.7787C29.7328 66.1947 29.6367 66.6442 29.6367 67.0984C29.6367 68.8896 31.1063 70.3633 32.9458 70.3633H38.0645L40.8775 48.9727C40.9638 48.3166 41.5229 47.8262 42.1846 47.8262H61.2173V30.6367H33.6848Z" fill="#2361A9"/>
<path fill-rule="evenodd" clip-rule="evenodd" d="M56.4526 28C57.1807 28 57.771 28.5902 57.771 29.3184V49.1446C57.771 49.8727 57.1807 50.4629 56.4526 50.4629C55.7245 50.4629 55.1343 49.8727 55.1343 49.1446V29.3184C55.1343 28.5902 55.7245 28 56.4526 28Z" fill="#2361A9"/>
<path fill-rule="evenodd" clip-rule="evenodd" d="M28.7202 42.62C28.7202 41.8919 29.3105 41.3016 30.0386 41.3016H56.4647C57.1928 41.3016 57.7831 41.8919 57.7831 42.62C57.7831 43.3481 57.1928 43.9384 56.4647 43.9384H30.0386C29.3105 43.9384 28.7202 43.3481 28.7202 42.62Z" fill="#2361A9"/>
<path fill-rule="evenodd" clip-rule="evenodd" d="M48.2502 47.8262C48.9783 47.8262 49.5686 48.4164 49.5686 49.1445V53.2515C49.5686 56.2867 47.108 58.7473 44.0728 58.7473H41.1216C40.3935 58.7473 39.8032 58.157 39.8032 57.4289C39.8032 56.7008 40.3935 56.1106 41.1216 56.1106H44.0728C45.6518 56.1106 46.9319 54.8305 46.9319 53.2515V49.1445C46.9319 48.4164 47.5221 47.8262 48.2502 47.8262Z" fill="#2361A9"/>
<path fill-rule="evenodd" clip-rule="evenodd" d="M36.6973 35.9969C36.6973 35.2688 37.2875 34.6785 38.0156 34.6785H38.0527C38.7808 34.6785 39.3711 35.2688 39.3711 35.9969C39.3711 36.725 38.7808 37.3152 38.0527 37.3152H38.0156C37.2875 37.3152 36.6973 36.725 36.6973 35.9969Z" fill="#2361A9"/>
<path fill-rule="evenodd" clip-rule="evenodd" d="M41.7583 35.9969C41.7583 35.2688 42.3486 34.6785 43.0767 34.6785H43.1137C43.8419 34.6785 44.4321 35.2688 44.4321 35.9969C44.4321 36.725 43.8419 37.3152 43.1137 37.3152H43.0767C42.3486 37.3152 41.7583 36.725 41.7583 35.9969Z" fill="#2361A9"/>
<path fill-rule="evenodd" clip-rule="evenodd" d="M31.6929 49.1445C31.6929 48.4164 32.2831 47.8262 33.0112 47.8262H42.1848C42.9129 47.8262 43.5032 48.4164 43.5032 49.1445C43.5032 49.8726 42.9129 50.4629 42.1848 50.4629H33.0112C32.2831 50.4629 31.6929 49.8726 31.6929 49.1445Z" fill="#2361A9"/>
<path fill-rule="evenodd" clip-rule="evenodd" d="M67.7784 32.5423C68.3076 32.0421 69.142 32.0656 69.6421 32.5947L69.6565 32.6099C72.7873 35.9266 72.7803 41.1119 69.6403 44.42C69.139 44.9481 68.3046 44.9699 67.7765 44.4686C67.2484 43.9674 67.2266 43.1329 67.7279 42.6048C69.9039 40.3123 69.9089 36.7188 67.7394 34.4202C67.7393 34.4201 67.7392 34.42 67.7391 34.4198L67.726 34.406C67.2259 33.8769 67.2493 33.0425 67.7784 32.5423Z" fill="#2361A9"/>
</svg>
